<svg width="32" height="32" viewBox="0 0 32 32" fill="none" xmlns="http://www.w3.org/2000/svg">
<path fill-rule="evenodd" clip-rule="evenodd" d="M3.45312 5.99538C3.45312 3.3541 9.12681 1.88672 14.4531 1.88672C19.7794 1.88672 25.4531 3.3541 25.4531 5.99538C25.4531 8.63667 19.7794 10.1041 14.4531 10.1041C9.12681 10.1041 3.45312 8.63667 3.45312 5.99538ZM3.45312 8.46075C5.76891 10.6325 11.0373 11.2781 14.4531 11.2781C17.8689 11.2781 23.1373 10.6325 25.4531 8.46075V15.3868C25.4531 15.6574 25.3936 15.9157 25.2809 16.1614L23.4334 15.1497C23.1342 14.9859 22.7721 14.9859 22.4728 15.1497L16.9728 18.1615C16.6524 18.3369 16.4531 18.6732 16.4531 19.0386V19.4274C15.7889 19.4726 15.1183 19.4955 14.4531 19.4955C9.12681 19.4955 3.45312 18.0281 3.45312 15.3868V8.46075ZM16.4531 20.6013C15.745 20.6484 15.069 20.6694 14.4531 20.6694C11.0373 20.6694 5.76891 20.0237 3.45312 17.852V24.7781C3.45312 27.4193 9.12681 28.8867 14.4531 28.8867C16.384 28.8867 18.3606 28.6939 20.0959 28.3222L16.9728 26.612C16.6524 26.4365 16.4531 26.1002 16.4531 25.7349V20.6013Z" fill="#0066F5"/>
<path d="M22.9531 22.0254V29.8826" stroke="#0066F5" stroke-miterlimit="10"/>
<path d="M16.4531 18.4414L22.4703 21.7587C22.7709 21.9244 23.1354 21.9244 23.4359 21.7587L29.4531 18.4414" stroke="#0066F5" stroke-miterlimit="10"/>
<path d="M28.9334 26.612C29.2539 26.4365 29.4531 26.1002 29.4531 25.7349V19.0386C29.4531 18.6732 29.2539 18.3369 28.9334 18.1615L23.4334 15.1497C23.1342 14.9859 22.7721 14.9859 22.4728 15.1497L16.9728 18.1615C16.6524 18.3369 16.4531 18.6732 16.4531 19.0386V25.7349C16.4531 26.1002 16.6524 26.4365 16.9728 26.612L22.4728 29.6237C22.7721 29.7876 23.1342 29.7876 23.4334 29.6237L28.9334 26.612Z" stroke="#0066F5" stroke-miterlimit="10"/>
</svg>
