<svg width="20" height="20" viewBox="0 0 20 20" fill="none" xmlns="http://www.w3.org/2000/svg">
<path fill-rule="evenodd" clip-rule="evenodd" d="M16.2857 19C16.6802 19 17 18.6802 17 18.2857V5.84395H12.5789C12.4812 5.84395 12.3875 5.80469 12.3184 5.73481C12.2493 5.66494 12.2105 5.57016 12.2105 5.47134V1L3.71514 1.00011C3.32067 1.00012 3.00089 1.31989 3.00087 1.71436L3 18.2857C2.99998 18.6802 3.31978 19 3.71429 19H16.2857ZM12.9472 1.59082V5.09859H16.4155L12.9472 1.59082ZM10.0039 10.832L6.85156 9.14062L10.0039 7.45703L13.1484 9.13672L10.0039 10.832ZM6.39844 13.6299V9.80762L9.60156 11.5312V15.332L6.39844 13.6299ZM13.6055 13.6299V9.80762L10.4023 11.5312V15.332L13.6055 13.6299Z" fill="#0066F5"/>
</svg>
