<svg width="16" height="16" viewBox="0 0 16 16" fill="none" xmlns="http://www.w3.org/2000/svg">
<path d="M8 7.64844V15.3747" stroke="#0066F5" stroke-miterlimit="10"/>
<path d="M1.5 4.125L7.52341 7.39038C7.8207 7.55155 8.1793 7.55155 8.47659 7.39038L14.5 4.125" stroke="#0066F5" stroke-miterlimit="10"/>
<path d="M13.9741 12.1582C14.298 11.9838 14.5 11.6456 14.5 11.2777V4.72229C14.5 4.35441 14.298 4.01624 13.9741 3.84182L8.4741 0.880285C8.17812 0.720913 7.82188 0.720913 7.5259 0.880285L2.0259 3.84182C1.70199 4.01624 1.5 4.35441 1.5 4.72229V11.2777C1.5 11.6456 1.70199 11.9838 2.0259 12.1582L7.5259 15.1197C7.82188 15.2791 8.17812 15.2791 8.4741 15.1197L13.9741 12.1582Z" stroke="#0066F5" stroke-miterlimit="10"/>
</svg>
