<svg width="16" height="16" viewBox="0 0 16 16" fill="none" xmlns="http://www.w3.org/2000/svg">
<g clip-path="url(#clip0_10375_357)">
<path d="M8 1C4.134 1 1 4.134 1 8C1 11.866 4.134 15 8 15C11.866 15 15 11.866 15 8C15 4.134 11.866 1 8 1Z" stroke="#0066F5" stroke-width="0.8" stroke-linecap="round" stroke-linejoin="round"/>
<path d="M8.15528 6.86121V5.93334C7.69838 5.60297 7.13604 5.43427 6.46826 5.43427C5.02725 5.43427 3.86742 6.59411 3.86742 7.99995C3.86742 9.4058 5.02725 10.5656 6.46826 10.5656C7.13604 10.5656 7.70043 10.3998 8.15528 10.0666C8.39546 9.89063 8.59096 9.70294 8.75876 9.50903C9.13257 9.07694 9.36864 8.61385 9.65391 8.18052C9.81727 7.96739 10.0707 7.83829 10.3753 7.83829C10.9095 7.83829 11.2891 8.24599 11.2891 8.80833C11.2891 9.37067 10.9095 9.77837 10.3753 9.77837C10.0686 9.77837 9.78353 9.59853 9.62575 9.43662L9.58503 9.43104C9.54923 9.48808 9.45289 9.6397 9.37839 9.7397C9.30537 9.83768 9.18925 9.97206 9.14217 10.0259L9.15635 10.0841C9.47027 10.3838 9.89799 10.5656 10.3753 10.5656C11.3594 10.5656 12.1326 9.79244 12.1326 8.80833C12.1326 7.82422 11.3594 7.05101 10.3753 7.05101C9.74909 7.05101 9.20827 7.36406 8.89773 7.84532C8.88741 7.86201 8.87717 7.87876 8.86712 7.89558C8.84566 7.93267 8.82565 7.97055 8.80476 8.00813C8.68182 8.2293 8.38188 8.74639 8.10397 9.05083C7.74335 9.44589 7.09387 9.70807 6.46826 9.70807C5.54039 9.70807 4.79528 8.9489 4.79528 7.99995C4.79528 7.05101 5.54039 6.29184 6.46826 6.29184C7.09387 6.29184 7.66324 6.50974 8.12015 6.89635L8.15528 6.86121Z" fill="#0066F5"/>
</g>
<defs>
<clipPath id="clip0_10375_357">
<rect width="16" height="16" fill="white"/>
</clipPath>
</defs>
</svg>
