<svg width="16" height="16" viewBox="0 0 16 16" fill="none" xmlns="http://www.w3.org/2000/svg">
<path d="M13.4376 10.094V3.24232C13.4376 3.13416 13.3946 3.03043 13.3181 2.95394L11.1781 0.813908C11.1016 0.737422 10.9979 0.694458 10.8897 0.694458H2.97026C2.74503 0.694458 2.56244 0.877045 2.56244 1.10228V13.8806C2.56244 14.1058 2.74503 14.2884 2.97026 14.2884H7.70273" stroke="#0066F5" stroke-linecap="round" stroke-linejoin="round"/>
<path d="M10.7188 0.694458V3.00542C10.7188 3.23065 10.9013 3.41324 11.1266 3.41324H13.4376" stroke="#0066F5" stroke-linecap="round" stroke-linejoin="round"/>
<path d="M12.2821 12.1735V11.4503C11.9259 11.1927 11.4876 11.0612 10.967 11.0612C9.84375 11.0612 8.93964 11.9653 8.93964 13.0612C8.93964 14.1571 9.84375 15.0612 10.967 15.0612C11.4876 15.0612 11.9275 14.9319 12.2821 14.6722C12.4693 14.535 12.6217 14.3887 12.7525 14.2376C13.0439 13.9007 13.2279 13.5398 13.4503 13.202C13.5777 13.0358 13.7752 12.9352 14.0126 12.9352C14.4291 12.9352 14.7249 13.253 14.7249 13.6914C14.7249 14.1297 14.4291 14.4475 14.0126 14.4475C13.7736 14.4475 13.5513 14.3073 13.4284 14.1811L13.3966 14.1768C13.3687 14.2212 13.2936 14.3394 13.2355 14.4174C13.1786 14.4938 13.0881 14.5985 13.0514 14.6405L13.0625 14.6859C13.3072 14.9194 13.6406 15.0612 14.0126 15.0612C14.7797 15.0612 15.3825 14.4585 15.3825 13.6914C15.3825 12.9242 14.7797 12.3215 14.0126 12.3215C13.5245 12.3215 13.1029 12.5655 12.8609 12.9407C12.8528 12.9537 12.8448 12.9667 12.837 12.9799C12.8203 13.0088 12.8047 13.0383 12.7884 13.0676C12.6925 13.24 12.4587 13.6431 12.2421 13.8804C11.961 14.1883 11.4547 14.3927 10.967 14.3927C10.2437 14.3927 9.66293 13.8009 9.66293 13.0612C9.66293 12.3215 10.2437 11.7297 10.967 11.7297C11.4547 11.7297 11.8985 11.8996 12.2547 12.2009L12.2821 12.1735Z" fill="#0066F5"/>
</svg>
