<svg width="16" height="16" viewBox="0 0 16 16" fill="none" xmlns="http://www.w3.org/2000/svg">
<rect x="1.5" y="1.5" width="13" height="13" rx="3.5" stroke="#0066F5"/>
<path d="M8.16813 6.76719V5.76266C7.67348 5.40499 7.06468 5.22235 6.3417 5.22235C4.78167 5.22235 3.526 6.47802 3.526 8.00001C3.526 9.52201 4.78167 10.7777 6.3417 10.7777C7.06468 10.7777 7.6757 10.5981 8.16813 10.2374C8.42815 10.0469 8.63981 9.8437 8.82147 9.63377C9.22616 9.16598 9.48174 8.66463 9.79058 8.1955C9.96743 7.96475 10.2418 7.82499 10.5715 7.82499C11.1499 7.82499 11.5608 8.26638 11.5608 8.87517C11.5608 9.48397 11.1499 9.92536 10.5715 9.92536C10.2395 9.92536 9.9309 9.73066 9.76009 9.55537L9.71601 9.54933C9.67725 9.61109 9.57294 9.77523 9.49226 9.8835C9.41324 9.98957 9.28753 10.1351 9.23655 10.1934L9.25191 10.2564C9.59176 10.5808 10.0548 10.7777 10.5715 10.7777C11.6369 10.7777 12.474 9.94059 12.474 8.87517C12.474 7.80976 11.6369 6.97267 10.5715 6.97267C9.89361 6.97267 9.30811 7.31158 8.97192 7.8326C8.96074 7.85067 8.94967 7.86881 8.93878 7.88701C8.91555 7.92717 8.89388 7.96819 8.87127 8.00887C8.73814 8.2483 8.41345 8.80812 8.11258 9.13771C7.72217 9.56541 7.01899 9.84925 6.3417 9.84925C5.3372 9.84925 4.53053 9.02736 4.53053 8.00001C4.53053 6.97267 5.3372 6.15078 6.3417 6.15078C7.01899 6.15078 7.63544 6.38668 8.13009 6.80523L8.16813 6.76719Z" fill="#0066F5"/>
</svg>
