<svg width="16" height="16" viewBox="0 0 16 16" fill="none" xmlns="http://www.w3.org/2000/svg">
<path d="M4.86764 6.9197V6.03948C4.4342 5.72608 3.90074 5.56604 3.26726 5.56604C1.90026 5.56604 0.799988 6.66632 0.799988 7.99996C0.799988 9.33361 1.90026 10.4339 3.26726 10.4339C3.90074 10.4339 4.43615 10.2765 4.86764 9.96045C5.09548 9.79354 5.28095 9.61549 5.44013 9.43154C5.79474 9.02164 6.01869 8.58233 6.28931 8.17125C6.44428 7.96907 6.68466 7.8466 6.97361 7.8466C7.48041 7.8466 7.84049 8.23336 7.84049 8.76682C7.84049 9.30028 7.48041 9.68704 6.97361 9.68704C6.68269 9.68704 6.41227 9.51644 6.26259 9.36285L6.22397 9.35755C6.19 9.41167 6.0986 9.5555 6.02793 9.65036C5.95867 9.74331 5.84851 9.87079 5.80384 9.9219L5.8173 9.97711C6.1151 10.2613 6.52085 10.4339 6.97361 10.4339C7.90718 10.4339 8.64068 9.70039 8.64068 8.76682C8.64068 7.83325 7.90718 7.09976 6.97361 7.09976C6.37959 7.09976 5.86655 7.39672 5.57196 7.85327C5.56217 7.8691 5.55246 7.885 5.54293 7.90095C5.52257 7.93614 5.50358 7.97207 5.48377 8.00772C5.36714 8.21753 5.0826 8.70806 4.81896 8.99687C4.47687 9.37164 3.86074 9.62035 3.26726 9.62035C2.38704 9.62035 1.6802 8.90017 1.6802 7.99996C1.6802 7.09976 2.38704 6.37957 3.26726 6.37957C3.86074 6.37957 4.40087 6.58628 4.83431 6.95303L4.86764 6.9197Z" fill="#0066F5"/>
<path d="M8.64069 8.84534H14.6407V10.8453" stroke="#0066F5" stroke-linecap="round" stroke-linejoin="round"/>
<path d="M11.974 8.84534V10.8453" stroke="#0066F5" stroke-linecap="round" stroke-linejoin="round"/>
</svg>
