<svg width="400" height="400" viewBox="0 0 400 400" fill="none" xmlns="http://www.w3.org/2000/svg">
<g clip-path="url(#clip0_3818_7539)">
<circle cx="200" cy="200" r="200" fill="#0066F5"/>
<path d="M205.053 162.274V131.534C189.916 120.589 171.286 115 149.162 115C101.423 115 62.998 153.425 62.998 200C62.998 246.575 101.423 285 149.162 285C171.286 285 189.984 279.504 205.053 268.466C213.01 262.637 219.487 256.419 225.046 249.995C237.43 235.68 245.251 220.338 254.702 205.982C260.114 198.921 268.509 194.644 278.6 194.644C296.299 194.644 308.874 208.151 308.874 226.781C308.874 245.411 296.299 258.918 278.6 258.918C268.44 258.918 258.996 252.96 253.769 247.596L252.42 247.411C251.234 249.301 248.042 254.324 245.573 257.637C243.155 260.883 239.308 265.335 237.748 267.12L238.218 269.048C248.618 278.974 262.787 285 278.6 285C311.203 285 336.819 259.384 336.819 226.781C336.819 194.178 311.203 168.562 278.6 168.562C257.855 168.562 239.938 178.933 229.65 194.877C229.308 195.43 228.969 195.985 228.636 196.542C227.925 197.771 227.262 199.026 226.57 200.271C222.496 207.598 212.56 224.729 203.353 234.815C191.406 247.903 169.888 256.589 149.162 256.589C118.423 256.589 93.7378 231.438 93.7378 200C93.7378 168.562 118.423 143.411 149.162 143.411C169.888 143.411 188.752 150.63 203.888 163.438L205.053 162.274Z" fill="white"/>
</g>
<defs>
<clipPath id="clip0_3818_7539">
<rect width="400" height="400" fill="white"/>
</clipPath>
</defs>
</svg>
