<svg width="298" height="96" viewBox="0 0 298 96" fill="none" xmlns="http://www.w3.org/2000/svg">
<path d="M198 37H214" stroke="#0066F5" stroke-width="1.33333" stroke-linecap="round" stroke-linejoin="round"/>
<path d="M198 27H214" stroke="#0066F5" stroke-width="1.33333" stroke-linecap="round" stroke-linejoin="round"/>
<path d="M82 32H90M90 32H98M90 32V24M90 32V40" stroke="#0066F5" stroke-width="1.33333" stroke-linecap="round" stroke-linejoin="round"/>
<path d="M36 16L26.6667 49.3333" stroke="#0066F5" stroke-width="1.33333" stroke-linecap="round" stroke-linejoin="round"/>
<path d="M17.3333 22.6667L8 32L17.3333 41.3333" stroke="#0066F5" stroke-width="1.33333" stroke-linecap="round" stroke-linejoin="round"/>
<path d="M46.6667 22.6667L56 32L46.6667 41.3333" stroke="#0066F5" stroke-width="1.33333" stroke-linecap="round" stroke-linejoin="round"/>
<path d="M148 40C152.418 40 156 36.4184 156 32C156 27.5816 152.418 24 148 24C143.582 24 140 27.5816 140 32C140 36.4184 143.582 40 148 40Z" stroke="#0066F5" stroke-width="1.33333" stroke-linecap="round" stroke-linejoin="round"/>
<path d="M168.326 27.7211L165.399 20.6528L169.333 16L164 10.6667L159.373 14.6212L152.154 11.6526L150.494 5.33333H145.283L143.598 11.7363L136.545 14.7092L132 10.6667L126.667 16L130.542 20.7703L127.66 27.8568L121.333 29.3333V34.6667L127.736 36.4147L130.709 43.4659L126.667 48L132 53.3333L136.776 49.4408L143.725 52.2995L145.333 58.6667H150.667L152.279 52.3019L159.347 49.3747C160.525 50.2168 164 53.3333 164 53.3333L169.333 48L165.376 43.3317L168.304 36.2613L174.666 34.6059L174.667 29.3333L168.326 27.7211Z" stroke="#0066F5" stroke-width="1.33333" stroke-linecap="round" stroke-linejoin="round"/>
<path d="M254.333 41.0667V22.9333C254.333 22.0497 255.05 21.3333 255.933 21.3333H274.067C274.95 21.3333 275.667 22.0497 275.667 22.9333V41.0667C275.667 41.9504 274.95 42.6667 274.067 42.6667H255.933C255.05 42.6667 254.333 41.9504 254.333 41.0667Z" stroke="#0066F5" stroke-width="1.33333" stroke-linecap="round" stroke-linejoin="round"/>
<path d="M286.333 12.2667V51.7333C286.333 52.6171 285.617 53.3333 284.733 53.3333H245.267C244.383 53.3333 243.667 52.6171 243.667 51.7333V12.2667C243.667 11.383 244.383 10.6667 245.267 10.6667H284.733C285.617 10.6667 286.333 11.383 286.333 12.2667Z" stroke="#0066F5" stroke-width="1.33333" stroke-linecap="round" stroke-linejoin="round"/>
<path d="M278.333 10.6667V5.33333" stroke="#0066F5" stroke-width="1.33333" stroke-linecap="round" stroke-linejoin="round"/>
<path d="M265 10.6667V5.33333" stroke="#0066F5" stroke-width="1.33333" stroke-linecap="round" stroke-linejoin="round"/>
<path d="M251.667 10.6667V5.33333" stroke="#0066F5" stroke-width="1.33333" stroke-linecap="round" stroke-linejoin="round"/>
<path d="M251.667 53.3333V58.6667" stroke="#0066F5" stroke-width="1.33333" stroke-linecap="round" stroke-linejoin="round"/>
<path d="M265 53.3333V58.6667" stroke="#0066F5" stroke-width="1.33333" stroke-linecap="round" stroke-linejoin="round"/>
<path d="M278.333 53.3333V58.6667" stroke="#0066F5" stroke-width="1.33333" stroke-linecap="round" stroke-linejoin="round"/>
<path d="M286.333 45.3333H291.667" stroke="#0066F5" stroke-width="1.33333" stroke-linecap="round" stroke-linejoin="round"/>
<path d="M286.333 32H291.667" stroke="#0066F5" stroke-width="1.33333" stroke-linecap="round" stroke-linejoin="round"/>
<path d="M286.333 18.6667H291.667" stroke="#0066F5" stroke-width="1.33333" stroke-linecap="round" stroke-linejoin="round"/>
<path d="M243.667 45.3333H238.333" stroke="#0066F5" stroke-width="1.33333" stroke-linecap="round" stroke-linejoin="round"/>
<path d="M243.667 32H238.333" stroke="#0066F5" stroke-width="1.33333" stroke-linecap="round" stroke-linejoin="round"/>
<path d="M243.667 18.6667H238.333" stroke="#0066F5" stroke-width="1.33333" stroke-linecap="round" stroke-linejoin="round"/>
<path d="M18.0625 79.2344C17.0417 79.2344 16.1589 78.9974 15.4141 78.5234C14.6745 78.0443 14.1016 77.3672 13.6953 76.4922C13.2943 75.6172 13.0938 74.5781 13.0938 73.375V73.3594C13.0938 72.1562 13.2943 71.1172 13.6953 70.2422C14.1016 69.362 14.6745 68.6849 15.4141 68.2109C16.1589 67.7318 17.0391 67.4922 18.0547 67.4922C18.8307 67.4922 19.5391 67.651 20.1797 67.9688C20.8255 68.2865 21.3568 68.7214 21.7734 69.2734C22.1901 69.8255 22.4505 70.4557 22.5547 71.1641L22.5469 71.1719L21.4766 71.1797V71.1641C21.362 70.6328 21.1432 70.1667 20.8203 69.7656C20.4974 69.3646 20.0964 69.0495 19.6172 68.8203C19.1432 68.5911 18.6224 68.4766 18.0547 68.4766C17.2682 68.4766 16.5833 68.6771 16 69.0781C15.4219 69.4792 14.974 70.0443 14.6562 70.7734C14.3438 71.5026 14.1875 72.3646 14.1875 73.3594V73.375C14.1875 74.3646 14.3438 75.224 14.6562 75.9531C14.974 76.6823 15.4219 77.2474 16 77.6484C16.5833 78.0495 17.2708 78.25 18.0625 78.25C18.6458 78.25 19.1745 78.1484 19.6484 77.9453C20.1276 77.7422 20.526 77.4583 20.8438 77.0938C21.1615 76.724 21.3698 76.2917 21.4688 75.7969L21.4844 75.7812H22.5547V75.7969C22.4453 76.4844 22.1849 77.0859 21.7734 77.6016C21.3672 78.1172 20.8464 78.5182 20.2109 78.8047C19.5755 79.0911 18.8594 79.2344 18.0625 79.2344ZM28.1953 79.1406C27.4141 79.1406 26.737 78.9661 26.1641 78.6172C25.5911 78.263 25.1484 77.7604 24.8359 77.1094C24.5286 76.4583 24.375 75.6875 24.375 74.7969V74.7812C24.375 73.8906 24.5286 73.1198 24.8359 72.4688C25.1484 71.8177 25.5911 71.3177 26.1641 70.9688C26.737 70.6198 27.4141 70.4453 28.1953 70.4453C28.9818 70.4453 29.6589 70.6198 30.2266 70.9688C30.7995 71.3177 31.2396 71.8177 31.5469 72.4688C31.8594 73.1198 32.0156 73.8906 32.0156 74.7812V74.7969C32.0156 75.6875 31.8594 76.4583 31.5469 77.1094C31.2396 77.7604 30.7995 78.263 30.2266 78.6172C29.6589 78.9661 28.9818 79.1406 28.1953 79.1406ZM28.1953 78.2266C28.7734 78.2266 29.2682 78.0885 29.6797 77.8125C30.0964 77.5365 30.4141 77.1432 30.6328 76.6328C30.8568 76.1172 30.9688 75.5052 30.9688 74.7969V74.7812C30.9688 74.0729 30.8568 73.4635 30.6328 72.9531C30.4141 72.4375 30.0964 72.0443 29.6797 71.7734C29.2682 71.4974 28.7734 71.3594 28.1953 71.3594C27.6172 71.3594 27.1198 71.4974 26.7031 71.7734C26.2917 72.0443 25.974 72.4349 25.75 72.9453C25.5312 73.4557 25.4219 74.0677 25.4219 74.7812V74.7969C25.4219 75.5052 25.5312 76.1172 25.75 76.6328C25.974 77.1432 26.2917 77.5365 26.7031 77.8125C27.1198 78.0885 27.6172 78.2266 28.1953 78.2266ZM37.3672 79.1406C36.6589 79.1406 36.0365 78.9609 35.5 78.6016C34.9688 78.237 34.5547 77.7292 34.2578 77.0781C33.9609 76.4219 33.8125 75.6641 33.8125 74.8047V74.7891C33.8125 73.9193 33.9609 73.1589 34.2578 72.5078C34.5547 71.8568 34.9688 71.3516 35.5 70.9922C36.0365 70.6276 36.6589 70.4453 37.3672 70.4453C37.7943 70.4453 38.1927 70.5182 38.5625 70.6641C38.9375 70.8099 39.2656 71.0156 39.5469 71.2812C39.8281 71.5469 40.0469 71.8646 40.2031 72.2344H40.2969V67.2344H41.3281V79H40.2969V77.3203H40.2031C40.0365 77.6953 39.8125 78.0182 39.5312 78.2891C39.2552 78.5599 38.9323 78.7708 38.5625 78.9219C38.1979 79.0677 37.7995 79.1406 37.3672 79.1406ZM37.5859 78.2266C38.138 78.2266 38.6172 78.0859 39.0234 77.8047C39.4349 77.5182 39.7526 77.1198 39.9766 76.6094C40.2057 76.0938 40.3203 75.4896 40.3203 74.7969V74.7812C40.3203 74.0885 40.2057 73.487 39.9766 72.9766C39.7526 72.4661 39.4349 72.0703 39.0234 71.7891C38.6172 71.5026 38.138 71.3594 37.5859 71.3594C37.0339 71.3594 36.5521 71.5 36.1406 71.7812C35.7344 72.0625 35.4193 72.4583 35.1953 72.9688C34.9714 73.4792 34.8594 74.0833 34.8594 74.7812V74.7969C34.8594 75.4896 34.9714 76.0938 35.1953 76.6094C35.4193 77.125 35.7344 77.5234 36.1406 77.8047C36.5521 78.0859 37.0339 78.2266 37.5859 78.2266ZM47.4375 79.1406C46.651 79.1406 45.9714 78.9635 45.3984 78.6094C44.8307 78.2552 44.3932 77.7552 44.0859 77.1094C43.7786 76.4635 43.625 75.7005 43.625 74.8203V74.8047C43.625 73.9297 43.7786 73.1667 44.0859 72.5156C44.3932 71.8594 44.8255 71.3516 45.3828 70.9922C45.9453 70.6276 46.6016 70.4453 47.3516 70.4453C48.1068 70.4453 48.7552 70.6224 49.2969 70.9766C49.8438 71.3255 50.263 71.8151 50.5547 72.4453C50.8516 73.0703 51 73.7969 51 74.625V75.0625H44.1562V74.2188H50.4766L49.9688 74.9766V74.5859C49.9688 73.8828 49.8568 73.2943 49.6328 72.8203C49.4141 72.3411 49.1068 71.9792 48.7109 71.7344C48.3203 71.4896 47.8672 71.3672 47.3516 71.3672C46.8307 71.3672 46.3698 71.4922 45.9688 71.7422C45.5677 71.9922 45.25 72.3594 45.0156 72.8438C44.7865 73.3229 44.6719 73.9036 44.6719 74.5859V74.9766C44.6719 75.6484 44.7865 76.2266 45.0156 76.7109C45.2448 77.1953 45.5677 77.5677 45.9844 77.8281C46.401 78.0885 46.8932 78.2188 47.4609 78.2188C47.8672 78.2188 48.2292 78.1615 48.5469 78.0469C48.8698 77.9323 49.138 77.7812 49.3516 77.5938C49.5651 77.401 49.7188 77.1979 49.8125 76.9844L49.8359 76.9219H50.875L50.8516 76.9844C50.7682 77.2708 50.6302 77.5443 50.4375 77.8047C50.25 78.0599 50.0104 78.2891 49.7188 78.4922C49.4271 78.6901 49.0885 78.849 48.7031 78.9688C48.3229 79.0833 47.901 79.1406 47.4375 79.1406ZM6.05469 93.0762C5.625 93.0762 5.25781 92.9512 4.95312 92.7012C4.64844 92.4473 4.41406 92.0801 4.25 91.5996C4.08984 91.1152 4.00977 90.5312 4.00977 89.8477V89.8301C4.00977 89.1426 4.08984 88.5605 4.25 88.084C4.41406 87.6035 4.64844 87.2383 4.95312 86.9883C5.25781 86.7383 5.625 86.6133 6.05469 86.6133C6.31641 86.6133 6.55859 86.666 6.78125 86.7715C7.00391 86.873 7.19531 87.0254 7.35547 87.2285C7.51953 87.4277 7.64648 87.6758 7.73633 87.9727H7.75977V84.2285H8.24609V93H7.75977V91.7109H7.73633C7.64258 92.0117 7.51562 92.2637 7.35547 92.4668C7.19531 92.666 7.00586 92.8184 6.78711 92.9238C6.56836 93.0254 6.32422 93.0762 6.05469 93.0762ZM6.13086 92.6367C6.44336 92.6367 6.7207 92.5371 6.96289 92.3379C7.20508 92.1348 7.39648 91.8281 7.53711 91.418C7.68164 91.0039 7.75391 90.4785 7.75391 89.8418V89.8301C7.75391 89.2012 7.68164 88.6816 7.53711 88.2715C7.39648 87.8574 7.20508 87.5508 6.96289 87.3516C6.7207 87.1523 6.44531 87.0527 6.13672 87.0527C5.79297 87.0527 5.5 87.1621 5.25781 87.3809C5.01562 87.5996 4.83008 87.916 4.70117 88.3301C4.57227 88.7441 4.50781 89.2422 4.50781 89.8242V89.8418C4.50781 90.4277 4.57227 90.9297 4.70117 91.3477C4.83008 91.7617 5.01562 92.0801 5.25781 92.3027C5.5 92.5254 5.79102 92.6367 6.13086 92.6367ZM12.0195 93.0762C11.5742 93.0762 11.1953 92.9531 10.8828 92.707C10.5703 92.4609 10.332 92.0977 10.168 91.6172C10.0078 91.1367 9.92773 90.5469 9.92773 89.8477V89.8359C9.92773 89.1406 10.0078 88.5527 10.168 88.0723C10.3281 87.5918 10.5605 87.2285 10.8652 86.9824C11.1738 86.7363 11.5449 86.6133 11.9785 86.6133C12.4082 86.6133 12.7734 86.7344 13.0742 86.9766C13.3789 87.2188 13.6094 87.5723 13.7656 88.0371C13.9258 88.498 14.0059 89.0547 14.0059 89.707V89.9766H10.1914V89.5723H13.7656L13.5254 89.918V89.6895C13.5254 89.127 13.4629 88.6504 13.3379 88.2598C13.2168 87.8691 13.0391 87.5703 12.8047 87.3633C12.5742 87.1562 12.2988 87.0527 11.9785 87.0527C11.6543 87.0527 11.375 87.1562 11.1406 87.3633C10.9102 87.5703 10.7324 87.8711 10.6074 88.2656C10.4863 88.6562 10.4258 89.1309 10.4258 89.6895V89.9238C10.4258 90.5098 10.4883 91.0059 10.6133 91.4121C10.7422 91.8145 10.9258 92.1191 11.1641 92.3262C11.4023 92.5332 11.6895 92.6367 12.0254 92.6367C12.291 92.6367 12.5234 92.5781 12.7227 92.4609C12.9258 92.3438 13.0898 92.1777 13.2148 91.9629C13.3398 91.748 13.4219 91.4922 13.4609 91.1953L13.4727 91.0898H13.9473L13.9297 91.2012C13.8945 91.4746 13.8262 91.7266 13.7246 91.957C13.627 92.1836 13.4961 92.3828 13.332 92.5547C13.1719 92.7227 12.9805 92.8516 12.7578 92.9414C12.5391 93.0312 12.293 93.0762 12.0195 93.0762ZM15.8691 93V87.1113H15.0547V86.6895H15.8691V85.5176C15.8691 85.2207 15.9199 84.9727 16.0215 84.7734C16.127 84.5703 16.2773 84.418 16.4727 84.3164C16.6719 84.2148 16.9121 84.1641 17.1934 84.1641C17.2793 84.1641 17.3594 84.168 17.4336 84.1758C17.5078 84.1797 17.5801 84.1875 17.6504 84.1992V84.6094C17.5918 84.6016 17.5293 84.5957 17.4629 84.5918C17.3965 84.5879 17.3262 84.5859 17.252 84.5859C16.9473 84.5859 16.7207 84.666 16.5723 84.8262C16.4277 84.9824 16.3555 85.2227 16.3555 85.5469V86.6895H17.5918V87.1113H16.3613V93H15.8691ZM18.957 93V86.6895H19.4434V93H18.957ZM19.2031 85.5234C19.0977 85.5234 19.0078 85.4883 18.9336 85.418C18.8594 85.3438 18.8223 85.2539 18.8223 85.1484C18.8223 85.0469 18.8594 84.9609 18.9336 84.8906C19.0078 84.8164 19.0977 84.7793 19.2031 84.7793C19.3086 84.7793 19.3984 84.8164 19.4727 84.8906C19.5508 84.9609 19.5898 85.0469 19.5898 85.1484C19.5898 85.2539 19.5508 85.3438 19.4727 85.418C19.3984 85.4883 19.3086 85.5234 19.2031 85.5234ZM21.3125 93V86.6895H21.7988V87.709H21.8223C21.9434 87.3887 22.1465 87.127 22.4316 86.9238C22.7207 86.7168 23.0703 86.6133 23.4805 86.6133C24.0391 86.6133 24.4707 86.7832 24.7754 87.123C25.084 87.4629 25.2383 87.9512 25.2383 88.5879V93H24.752V88.6582C24.752 88.1387 24.6367 87.7422 24.4062 87.4688C24.1758 87.1953 23.8281 87.0586 23.3633 87.0586C23.0352 87.0586 22.7539 87.1406 22.5195 87.3047C22.2852 87.4648 22.1055 87.6836 21.9805 87.9609C21.8594 88.2383 21.7988 88.5469 21.7988 88.8867V93H21.3125ZM28.9648 93.0762C28.5195 93.0762 28.1406 92.9531 27.8281 92.707C27.5156 92.4609 27.2773 92.0977 27.1133 91.6172C26.9531 91.1367 26.873 90.5469 26.873 89.8477V89.8359C26.873 89.1406 26.9531 88.5527 27.1133 88.0723C27.2734 87.5918 27.5059 87.2285 27.8105 86.9824C28.1191 86.7363 28.4902 86.6133 28.9238 86.6133C29.3535 86.6133 29.7188 86.7344 30.0195 86.9766C30.3242 87.2188 30.5547 87.5723 30.7109 88.0371C30.8711 88.498 30.9512 89.0547 30.9512 89.707V89.9766H27.1367V89.5723H30.7109L30.4707 89.918V89.6895C30.4707 89.127 30.4082 88.6504 30.2832 88.2598C30.1621 87.8691 29.9844 87.5703 29.75 87.3633C29.5195 87.1562 29.2441 87.0527 28.9238 87.0527C28.5996 87.0527 28.3203 87.1562 28.0859 87.3633C27.8555 87.5703 27.6777 87.8711 27.5527 88.2656C27.4316 88.6562 27.3711 89.1309 27.3711 89.6895V89.9238C27.3711 90.5098 27.4336 91.0059 27.5586 91.4121C27.6875 91.8145 27.8711 92.1191 28.1094 92.3262C28.3477 92.5332 28.6348 92.6367 28.9707 92.6367C29.2363 92.6367 29.4688 92.5781 29.668 92.4609C29.8711 92.3438 30.0352 92.1777 30.1602 91.9629C30.2852 91.748 30.3672 91.4922 30.4062 91.1953L30.418 91.0898H30.8926L30.875 91.2012C30.8398 91.4746 30.7715 91.7266 30.6699 91.957C30.5723 92.1836 30.4414 92.3828 30.2773 92.5547C30.1172 92.7227 29.9258 92.8516 29.7031 92.9414C29.4844 93.0312 29.2383 93.0762 28.9648 93.0762ZM34.3145 93.0762C33.9355 93.0762 33.6016 93.0078 33.3125 92.8711C33.0234 92.7344 32.7949 92.5332 32.627 92.2676C32.459 92.002 32.3672 91.6758 32.3516 91.2891V91.0664H32.8203L32.8262 91.2656C32.8496 91.7305 32.998 92.0781 33.2715 92.3086C33.5449 92.5352 33.8945 92.6484 34.3203 92.6484C34.5938 92.6484 34.834 92.5996 35.041 92.502C35.248 92.4004 35.4082 92.2598 35.5215 92.0801C35.6387 91.8965 35.6973 91.6875 35.6973 91.4531V91.4414C35.6973 91.1211 35.5957 90.8555 35.3926 90.6445C35.1934 90.4336 34.8691 90.2422 34.4199 90.0703L33.9102 89.8828C33.582 89.7539 33.3105 89.6113 33.0957 89.4551C32.8848 89.2949 32.7285 89.1152 32.627 88.916C32.5293 88.7129 32.4805 88.4805 32.4805 88.2188V88.207C32.4805 87.8945 32.5547 87.6191 32.7031 87.3809C32.8555 87.1387 33.0664 86.9512 33.3359 86.8184C33.6055 86.6816 33.916 86.6133 34.2676 86.6133C34.6152 86.6133 34.9219 86.6836 35.1875 86.8242C35.457 86.9609 35.668 87.1602 35.8203 87.4219C35.9727 87.6836 36.0547 88.002 36.0664 88.377L36.0723 88.6055H35.6094L35.6035 88.4121C35.584 87.9707 35.4512 87.6309 35.2051 87.3926C34.9629 87.1543 34.6504 87.0352 34.2676 87.0352C34.0059 87.0352 33.7793 87.084 33.5879 87.1816C33.3965 87.2754 33.2461 87.4102 33.1367 87.5859C33.0273 87.7617 32.9727 87.9629 32.9727 88.1895V88.1953C32.9727 88.3984 33.0098 88.5762 33.084 88.7285C33.1621 88.877 33.2871 89.0137 33.459 89.1387C33.6309 89.2598 33.8633 89.375 34.1562 89.4844L34.6602 89.6777C35.1797 89.877 35.5645 90.1113 35.8145 90.3809C36.0645 90.6504 36.1895 90.9941 36.1895 91.4121V91.4238C36.1895 91.752 36.1113 92.0391 35.9551 92.2852C35.7988 92.5312 35.5801 92.7246 35.2988 92.8652C35.0176 93.0059 34.6895 93.0762 34.3145 93.0762ZM39.8984 93V84.2285H40.3848V93H39.8984ZM44.2227 93.0762C43.7656 93.0762 43.377 92.9531 43.0566 92.707C42.7363 92.4609 42.4922 92.0996 42.3242 91.623C42.1562 91.1426 42.0723 90.5488 42.0723 89.8418V89.8301C42.0723 89.1309 42.1562 88.543 42.3242 88.0664C42.4922 87.5859 42.7363 87.2246 43.0566 86.9824C43.377 86.7363 43.7656 86.6133 44.2227 86.6133C44.6836 86.6133 45.0723 86.7363 45.3887 86.9824C45.709 87.2246 45.9531 87.5859 46.1211 88.0664C46.293 88.543 46.3789 89.1309 46.3789 89.8301V89.8418C46.3789 90.5488 46.2949 91.1426 46.127 91.623C45.959 92.0996 45.7129 92.4609 45.3887 92.707C45.0684 92.9531 44.6797 93.0762 44.2227 93.0762ZM44.2227 92.6367C44.5781 92.6367 44.8789 92.5273 45.125 92.3086C45.3711 92.0859 45.5586 91.7676 45.6875 91.3535C45.8164 90.9355 45.8809 90.4316 45.8809 89.8418V89.8301C45.8809 89.2402 45.8164 88.7383 45.6875 88.3242C45.5586 87.9102 45.3711 87.5957 45.125 87.3809C44.8789 87.1621 44.5781 87.0527 44.2227 87.0527C43.8711 87.0527 43.5703 87.1621 43.3203 87.3809C43.0742 87.5957 42.8867 87.9102 42.7578 88.3242C42.6328 88.7383 42.5703 89.2402 42.5703 89.8301V89.8418C42.5703 90.4316 42.6328 90.9355 42.7578 91.3535C42.8867 91.7676 43.0742 92.0859 43.3203 92.3086C43.5664 92.5273 43.8672 92.6367 44.2227 92.6367ZM50.0234 95.1855C49.6484 95.1855 49.3242 95.123 49.0508 94.998C48.7773 94.877 48.5566 94.6992 48.3887 94.4648C48.2246 94.2305 48.1152 93.9414 48.0605 93.5977L48.0547 93.5332H48.5293L48.541 93.5918C48.6152 93.9746 48.7773 94.2637 49.0273 94.459C49.2773 94.6543 49.6094 94.752 50.0234 94.752C50.5195 94.752 50.9004 94.5977 51.166 94.2891C51.4316 93.9844 51.5645 93.5508 51.5645 92.9883V91.6641H51.5469C51.457 91.9805 51.3281 92.2383 51.1602 92.4375C50.9961 92.6328 50.8027 92.7793 50.5801 92.877C50.3613 92.9707 50.123 93.0176 49.8652 93.0176C49.4395 93.0176 49.0742 92.8945 48.7695 92.6484C48.4648 92.4023 48.2305 92.041 48.0664 91.5645C47.9062 91.0879 47.8262 90.5059 47.8262 89.8184V89.8008C47.8262 89.1172 47.9062 88.5391 48.0664 88.0664C48.2266 87.5898 48.459 87.2305 48.7637 86.9883C49.0684 86.7422 49.4355 86.6191 49.8652 86.6191C50.1309 86.6191 50.375 86.6719 50.5977 86.7773C50.8203 86.8789 51.0117 87.0312 51.1719 87.2344C51.3359 87.4375 51.4609 87.6875 51.5469 87.9844H51.5645V86.6895H52.0508V93.0234C52.0508 93.4766 51.9707 93.8652 51.8105 94.1895C51.6504 94.5137 51.418 94.7598 51.1133 94.9277C50.8086 95.0996 50.4453 95.1855 50.0234 95.1855ZM49.9414 92.5723C50.2656 92.5723 50.5488 92.4688 50.791 92.2617C51.0371 92.0547 51.2266 91.748 51.3594 91.3418C51.4961 90.9355 51.5645 90.4316 51.5645 89.8301V89.8125C51.5645 89.2148 51.4961 88.7129 51.3594 88.3066C51.2227 87.8965 51.0332 87.5879 50.791 87.3809C50.5488 87.1699 50.2676 87.0645 49.9473 87.0645C49.6035 87.0645 49.3105 87.1738 49.0684 87.3926C48.8262 87.6074 48.6406 87.9199 48.5117 88.3301C48.3867 88.7363 48.3242 89.2266 48.3242 89.8008V89.8125C48.3242 90.3906 48.3867 90.8867 48.5117 91.3008C48.6406 91.7109 48.8262 92.0254 49.0684 92.2441C49.3105 92.4629 49.6016 92.5723 49.9414 92.5723ZM53.9141 93V86.6895H54.4004V93H53.9141ZM54.1602 85.5234C54.0547 85.5234 53.9648 85.4883 53.8906 85.418C53.8164 85.3438 53.7793 85.2539 53.7793 85.1484C53.7793 85.0469 53.8164 84.9609 53.8906 84.8906C53.9648 84.8164 54.0547 84.7793 54.1602 84.7793C54.2656 84.7793 54.3555 84.8164 54.4297 84.8906C54.5078 84.9609 54.5469 85.0469 54.5469 85.1484C54.5469 85.2539 54.5078 85.3438 54.4297 85.418C54.3555 85.4883 54.2656 85.5234 54.1602 85.5234ZM58.1562 93.0762C57.7148 93.0762 57.3379 92.9531 57.0254 92.707C56.7129 92.4609 56.4727 92.0996 56.3047 91.623C56.1406 91.1426 56.0586 90.5527 56.0586 89.8535V89.8301C56.0586 89.1387 56.1406 88.5547 56.3047 88.0781C56.4688 87.5977 56.707 87.2344 57.0195 86.9883C57.332 86.7383 57.7109 86.6133 58.1562 86.6133C58.5273 86.6133 58.8457 86.6973 59.1113 86.8652C59.377 87.0332 59.5879 87.2676 59.7441 87.5684C59.9004 87.8652 60.002 88.209 60.0488 88.5996L60.0605 88.7461L59.6035 88.752L59.5859 88.6172C59.5234 88.1406 59.3691 87.7617 59.123 87.4805C58.8809 87.1953 58.5586 87.0527 58.1562 87.0527C57.8125 87.0527 57.5215 87.1602 57.2832 87.375C57.0449 87.5898 56.8633 87.9062 56.7383 88.3242C56.6133 88.7383 56.5508 89.2402 56.5508 89.8301V89.8535C56.5508 90.4434 56.6133 90.9473 56.7383 91.3652C56.8633 91.7793 57.0449 92.0957 57.2832 92.3145C57.5254 92.5293 57.8164 92.6367 58.1562 92.6367C58.5625 92.6367 58.8848 92.498 59.123 92.2207C59.3652 91.9395 59.5195 91.5605 59.5859 91.084L59.5977 90.9551H60.0605L60.043 91.1016C59.9961 91.4961 59.8945 91.8418 59.7383 92.1387C59.582 92.4316 59.3711 92.6621 59.1055 92.8301C58.8438 92.9941 58.5273 93.0762 58.1562 93.0762Z" fill="#0066F5"/>
<path d="M101.594 79.2891C100.505 79.2891 99.5651 79.0495 98.7734 78.5703C97.9818 78.0911 97.3724 77.4089 96.9453 76.5234C96.5182 75.638 96.3047 74.5859 96.3047 73.3672V73.3516C96.3047 72.1328 96.5182 71.0807 96.9453 70.1953C97.3724 69.3099 97.9792 68.6302 98.7656 68.1562C99.5573 67.6771 100.5 67.4375 101.594 67.4375C102.484 67.4375 103.284 67.612 103.992 67.9609C104.706 68.3099 105.281 68.7917 105.719 69.4062C106.156 70.0208 106.411 70.724 106.484 71.5156V71.6172H104.195L104.188 71.5625C104.109 71.1406 103.951 70.7708 103.711 70.4531C103.471 70.1302 103.169 69.8802 102.805 69.7031C102.445 69.526 102.042 69.4375 101.594 69.4375C101.005 69.4375 100.495 69.5964 100.062 69.9141C99.6302 70.2266 99.2969 70.6771 99.0625 71.2656C98.8333 71.849 98.7188 72.5443 98.7188 73.3516V73.3672C98.7188 74.1693 98.8333 74.8646 99.0625 75.4531C99.2969 76.0417 99.6302 76.4948 100.062 76.8125C100.495 77.1302 101.008 77.2891 101.602 77.2891C102.055 77.2891 102.458 77.2083 102.812 77.0469C103.172 76.8802 103.469 76.6484 103.703 76.3516C103.943 76.0495 104.102 75.6979 104.18 75.2969L104.195 75.2266H106.492V75.3203C106.409 76.1068 106.151 76.7969 105.719 77.3906C105.286 77.9844 104.719 78.4505 104.016 78.7891C103.312 79.1224 102.505 79.2891 101.594 79.2891ZM112.258 79.1797C111.378 79.1797 110.62 79.0026 109.984 78.6484C109.349 78.2891 108.862 77.776 108.523 77.1094C108.185 76.4375 108.016 75.6354 108.016 74.7031V74.6875C108.016 73.7604 108.188 72.9635 108.531 72.2969C108.875 71.6302 109.362 71.1172 109.992 70.7578C110.628 70.3932 111.383 70.2109 112.258 70.2109C113.133 70.2109 113.885 70.3906 114.516 70.75C115.151 71.1094 115.641 71.625 115.984 72.2969C116.328 72.9635 116.5 73.7604 116.5 74.6875V74.7031C116.5 75.6354 116.331 76.4375 115.992 77.1094C115.654 77.776 115.167 78.2891 114.531 78.6484C113.901 79.0026 113.143 79.1797 112.258 79.1797ZM112.258 77.3906C112.664 77.3906 113.008 77.2839 113.289 77.0703C113.57 76.8568 113.786 76.5495 113.938 76.1484C114.089 75.7474 114.164 75.2656 114.164 74.7031V74.6875C114.164 74.125 114.089 73.6458 113.938 73.25C113.786 72.849 113.568 72.5417 113.281 72.3281C113 72.1094 112.659 72 112.258 72C111.857 72 111.513 72.1094 111.227 72.3281C110.945 72.5417 110.729 72.849 110.578 73.25C110.427 73.6458 110.352 74.125 110.352 74.6875V74.7031C110.352 75.2708 110.424 75.7552 110.57 76.1562C110.721 76.5573 110.938 76.8646 111.219 77.0781C111.505 77.2865 111.852 77.3906 112.258 77.3906ZM118.359 79V70.3984H120.641V71.7266H120.781C120.979 71.2578 121.286 70.888 121.703 70.6172C122.12 70.3464 122.635 70.2109 123.25 70.2109C124.208 70.2109 124.938 70.4922 125.438 71.0547C125.943 71.612 126.195 72.4062 126.195 73.4375V79H123.914V73.9531C123.914 73.3438 123.786 72.8828 123.531 72.5703C123.276 72.2578 122.878 72.1016 122.336 72.1016C121.987 72.1016 121.685 72.1823 121.43 72.3438C121.18 72.5 120.984 72.7214 120.844 73.0078C120.708 73.2943 120.641 73.6328 120.641 74.0234V79H118.359ZM129.07 79V72.1172H127.68V70.3984H129.07V69.5938C129.07 69.0208 129.172 68.5443 129.375 68.1641C129.578 67.7839 129.896 67.5 130.328 67.3125C130.766 67.1198 131.331 67.0234 132.023 67.0234C132.258 67.0234 132.469 67.0312 132.656 67.0469C132.849 67.0625 133.029 67.0833 133.195 67.1094V68.6328C133.122 68.6172 133.026 68.6068 132.906 68.6016C132.792 68.5911 132.661 68.5859 132.516 68.5859C132.073 68.5859 131.76 68.6875 131.578 68.8906C131.396 69.0885 131.305 69.375 131.305 69.75V70.3984H133.125V72.1172H131.352V79H129.07ZM134.953 79V70.3984H137.234V79H134.953ZM136.102 69.0781C135.753 69.0781 135.451 68.9557 135.195 68.7109C134.94 68.4609 134.812 68.1615 134.812 67.8125C134.812 67.4583 134.94 67.1589 135.195 66.9141C135.451 66.6641 135.753 66.5391 136.102 66.5391C136.456 66.5391 136.758 66.6641 137.008 66.9141C137.258 67.1589 137.383 67.4583 137.383 67.8125C137.383 68.1615 137.258 68.4609 137.008 68.7109C136.758 68.9557 136.456 69.0781 136.102 69.0781ZM143.328 82.0234C142.531 82.0234 141.849 81.9193 141.281 81.7109C140.719 81.5078 140.276 81.2188 139.953 80.8438C139.63 80.474 139.438 80.0469 139.375 79.5625V79.5234H141.633L141.641 79.5547C141.703 79.8047 141.88 80.0078 142.172 80.1641C142.469 80.3203 142.87 80.3984 143.375 80.3984C143.984 80.3984 144.458 80.2604 144.797 79.9844C145.135 79.7135 145.305 79.3281 145.305 78.8281V77.2266H145.164C145.008 77.5286 144.802 77.7839 144.547 77.9922C144.297 78.2005 144.005 78.3594 143.672 78.4688C143.344 78.5729 142.982 78.625 142.586 78.625C141.867 78.625 141.245 78.4531 140.719 78.1094C140.198 77.7604 139.794 77.276 139.508 76.6562C139.227 76.0365 139.086 75.3203 139.086 74.5078V74.4922C139.086 73.6484 139.227 72.9089 139.508 72.2734C139.794 71.638 140.201 71.1432 140.727 70.7891C141.258 70.4349 141.891 70.2578 142.625 70.2578C143.021 70.2578 143.383 70.3203 143.711 70.4453C144.044 70.5703 144.336 70.7474 144.586 70.9766C144.836 71.2057 145.036 71.4818 145.188 71.8047H145.297V70.3984H147.578V78.7344C147.578 79.4062 147.404 79.987 147.055 80.4766C146.711 80.9714 146.221 81.3516 145.586 81.6172C144.951 81.888 144.198 82.0234 143.328 82.0234ZM143.359 76.875C143.771 76.875 144.122 76.776 144.414 76.5781C144.706 76.375 144.93 76.0964 145.086 75.7422C145.247 75.388 145.328 74.974 145.328 74.5V74.4844C145.328 74.0156 145.247 73.6016 145.086 73.2422C144.93 72.8828 144.706 72.6042 144.414 72.4062C144.122 72.2083 143.771 72.1094 143.359 72.1094C142.948 72.1094 142.599 72.2083 142.312 72.4062C142.026 72.6042 141.805 72.8828 141.648 73.2422C141.497 73.5964 141.422 74.0104 141.422 74.4844V74.5C141.422 74.9688 141.497 75.3828 141.648 75.7422C141.805 76.0964 142.026 76.375 142.312 76.5781C142.599 76.776 142.948 76.875 143.359 76.875ZM152.703 79.1797C152.062 79.1797 151.523 79.0547 151.086 78.8047C150.654 78.5547 150.328 78.1901 150.109 77.7109C149.891 77.2266 149.781 76.6432 149.781 75.9609V70.3984H152.062V75.4375C152.062 76.0469 152.182 76.5078 152.422 76.8203C152.667 77.1328 153.06 77.2891 153.602 77.2891C153.883 77.2891 154.13 77.2448 154.344 77.1562C154.562 77.0625 154.745 76.9323 154.891 76.7656C155.036 76.599 155.146 76.3984 155.219 76.1641C155.297 75.9245 155.336 75.6589 155.336 75.3672V70.3984H157.617V79H155.336V77.6719H155.195C155.065 77.9844 154.883 78.2552 154.648 78.4844C154.414 78.7083 154.133 78.8802 153.805 79C153.477 79.1198 153.109 79.1797 152.703 79.1797ZM160.086 79V70.5859H161.117V71.9688H161.211C161.378 71.4896 161.659 71.1172 162.055 70.8516C162.451 70.5807 162.932 70.4453 163.5 70.4453C163.656 70.4453 163.802 70.4531 163.938 70.4688C164.073 70.4844 164.19 70.5026 164.289 70.5234V71.5312C164.143 71.4948 163.997 71.4688 163.852 71.4531C163.711 71.4323 163.557 71.4219 163.391 71.4219C162.953 71.4219 162.562 71.5234 162.219 71.7266C161.88 71.9245 161.612 72.1979 161.414 72.5469C161.216 72.8958 161.117 73.2969 161.117 73.75V79H160.086ZM168.234 79.1406C167.693 79.1406 167.211 79.0417 166.789 78.8438C166.367 78.6406 166.034 78.3542 165.789 77.9844C165.544 77.6146 165.422 77.1797 165.422 76.6797V76.6641C165.422 76.1797 165.539 75.763 165.773 75.4141C166.008 75.0599 166.352 74.7839 166.805 74.5859C167.258 74.3828 167.807 74.2604 168.453 74.2188L171.594 74.0156V74.8516L168.594 75.0547C167.875 75.1016 167.341 75.2604 166.992 75.5312C166.648 75.7969 166.477 76.1693 166.477 76.6484V76.6641C166.477 77.1484 166.659 77.5339 167.023 77.8203C167.388 78.1016 167.857 78.2422 168.43 78.2422C168.935 78.2422 169.385 78.138 169.781 77.9297C170.182 77.7161 170.5 77.4297 170.734 77.0703C170.969 76.7109 171.086 76.3099 171.086 75.8672V73.2578C171.086 72.638 170.904 72.1667 170.539 71.8438C170.174 71.5208 169.651 71.3594 168.969 71.3594C168.396 71.3594 167.919 71.4714 167.539 71.6953C167.159 71.9193 166.911 72.2422 166.797 72.6641L166.789 72.6797H165.758L165.766 72.6484C165.839 72.1953 166.021 71.8047 166.312 71.4766C166.604 71.1484 166.979 70.8958 167.438 70.7188C167.896 70.5365 168.417 70.4453 169 70.4453C169.661 70.4453 170.224 70.5573 170.688 70.7812C171.151 71 171.503 71.3177 171.742 71.7344C171.987 72.151 172.109 72.6562 172.109 73.25V79H171.086V77.5469H170.984C170.818 77.8802 170.599 78.1667 170.328 78.4062C170.057 78.6406 169.745 78.8229 169.391 78.9531C169.036 79.0781 168.651 79.1406 168.234 79.1406ZM177.484 79.0547C176.688 79.0547 176.109 78.888 175.75 78.5547C175.396 78.2214 175.219 77.6719 175.219 76.9062V71.4453H173.867V70.5859H175.219V68.3984H176.281V70.5859H178.211V71.4453H176.281V76.6719C176.281 77.1927 176.383 77.5677 176.586 77.7969C176.789 78.026 177.128 78.1406 177.602 78.1406C177.721 78.1406 177.826 78.138 177.914 78.1328C178.003 78.1276 178.102 78.1198 178.211 78.1094V78.9922C178.091 79.0078 177.971 79.0208 177.852 79.0312C177.737 79.0469 177.615 79.0547 177.484 79.0547ZM180.414 79V70.5859H181.445V79H180.414ZM180.93 68.8359C180.727 68.8359 180.549 68.763 180.398 68.6172C180.247 68.4661 180.172 68.2865 180.172 68.0781C180.172 67.8698 180.247 67.6927 180.398 67.5469C180.549 67.3958 180.727 67.3203 180.93 67.3203C181.143 67.3203 181.323 67.3958 181.469 67.5469C181.615 67.6927 181.688 67.8698 181.688 68.0781C181.688 68.2865 181.615 68.4661 181.469 68.6172C181.323 68.763 181.143 68.8359 180.93 68.8359ZM187.531 79.1406C186.75 79.1406 186.073 78.9661 185.5 78.6172C184.927 78.263 184.484 77.7604 184.172 77.1094C183.865 76.4583 183.711 75.6875 183.711 74.7969V74.7812C183.711 73.8906 183.865 73.1198 184.172 72.4688C184.484 71.8177 184.927 71.3177 185.5 70.9688C186.073 70.6198 186.75 70.4453 187.531 70.4453C188.318 70.4453 188.995 70.6198 189.562 70.9688C190.135 71.3177 190.576 71.8177 190.883 72.4688C191.195 73.1198 191.352 73.8906 191.352 74.7812V74.7969C191.352 75.6875 191.195 76.4583 190.883 77.1094C190.576 77.7604 190.135 78.263 189.562 78.6172C188.995 78.9661 188.318 79.1406 187.531 79.1406ZM187.531 78.2266C188.109 78.2266 188.604 78.0885 189.016 77.8125C189.432 77.5365 189.75 77.1432 189.969 76.6328C190.193 76.1172 190.305 75.5052 190.305 74.7969V74.7812C190.305 74.0729 190.193 73.4635 189.969 72.9531C189.75 72.4375 189.432 72.0443 189.016 71.7734C188.604 71.4974 188.109 71.3594 187.531 71.3594C186.953 71.3594 186.456 71.4974 186.039 71.7734C185.628 72.0443 185.31 72.4349 185.086 72.9453C184.867 73.4557 184.758 74.0677 184.758 74.7812V74.7969C184.758 75.5052 184.867 76.1172 185.086 76.6328C185.31 77.1432 185.628 77.5365 186.039 77.8125C186.456 78.0885 186.953 78.2266 187.531 78.2266ZM193.57 79V70.5859H194.602V72.0625H194.695C194.919 71.5521 195.255 71.1562 195.703 70.875C196.156 70.5885 196.708 70.4453 197.359 70.4453C198.302 70.4453 199.029 70.7161 199.539 71.2578C200.055 71.7943 200.312 72.5495 200.312 73.5234V79H199.289V73.7812C199.289 72.9844 199.104 72.3828 198.734 71.9766C198.37 71.5651 197.823 71.3594 197.094 71.3594C196.599 71.3594 196.164 71.4688 195.789 71.6875C195.414 71.9062 195.122 72.2135 194.914 72.6094C194.706 73.0052 194.602 73.4688 194.602 74V79H193.57ZM112.189 93.0762C111.748 93.0762 111.371 92.9531 111.059 92.707C110.746 92.4609 110.506 92.0996 110.338 91.623C110.174 91.1426 110.092 90.5527 110.092 89.8535V89.8301C110.092 89.1387 110.174 88.5547 110.338 88.0781C110.502 87.5977 110.74 87.2344 111.053 86.9883C111.365 86.7383 111.744 86.6133 112.189 86.6133C112.561 86.6133 112.879 86.6973 113.145 86.8652C113.41 87.0332 113.621 87.2676 113.777 87.5684C113.934 87.8652 114.035 88.209 114.082 88.5996L114.094 88.7461L113.637 88.752L113.619 88.6172C113.557 88.1406 113.402 87.7617 113.156 87.4805C112.914 87.1953 112.592 87.0527 112.189 87.0527C111.846 87.0527 111.555 87.1602 111.316 87.375C111.078 87.5898 110.896 87.9062 110.771 88.3242C110.646 88.7383 110.584 89.2402 110.584 89.8301V89.8535C110.584 90.4434 110.646 90.9473 110.771 91.3652C110.896 91.7793 111.078 92.0957 111.316 92.3145C111.559 92.5293 111.85 92.6367 112.189 92.6367C112.596 92.6367 112.918 92.498 113.156 92.2207C113.398 91.9395 113.553 91.5605 113.619 91.084L113.631 90.9551H114.094L114.076 91.1016C114.029 91.4961 113.928 91.8418 113.771 92.1387C113.615 92.4316 113.404 92.6621 113.139 92.8301C112.877 92.9941 112.561 93.0762 112.189 93.0762ZM117.627 93.0762C117.17 93.0762 116.781 92.9531 116.461 92.707C116.141 92.4609 115.896 92.0996 115.729 91.623C115.561 91.1426 115.477 90.5488 115.477 89.8418V89.8301C115.477 89.1309 115.561 88.543 115.729 88.0664C115.896 87.5859 116.141 87.2246 116.461 86.9824C116.781 86.7363 117.17 86.6133 117.627 86.6133C118.088 86.6133 118.477 86.7363 118.793 86.9824C119.113 87.2246 119.357 87.5859 119.525 88.0664C119.697 88.543 119.783 89.1309 119.783 89.8301V89.8418C119.783 90.5488 119.699 91.1426 119.531 91.623C119.363 92.0996 119.117 92.4609 118.793 92.707C118.473 92.9531 118.084 93.0762 117.627 93.0762ZM117.627 92.6367C117.982 92.6367 118.283 92.5273 118.529 92.3086C118.775 92.0859 118.963 91.7676 119.092 91.3535C119.221 90.9355 119.285 90.4316 119.285 89.8418V89.8301C119.285 89.2402 119.221 88.7383 119.092 88.3242C118.963 87.9102 118.775 87.5957 118.529 87.3809C118.283 87.1621 117.982 87.0527 117.627 87.0527C117.275 87.0527 116.975 87.1621 116.725 87.3809C116.479 87.5957 116.291 87.9102 116.162 88.3242C116.037 88.7383 115.975 89.2402 115.975 89.8301V89.8418C115.975 90.4316 116.037 90.9355 116.162 91.3535C116.291 91.7676 116.479 92.0859 116.725 92.3086C116.971 92.5273 117.271 92.6367 117.627 92.6367ZM121.447 93V86.6895H121.934V87.709H121.957C122.078 87.3887 122.281 87.127 122.566 86.9238C122.855 86.7168 123.205 86.6133 123.615 86.6133C124.174 86.6133 124.605 86.7832 124.91 87.123C125.219 87.4629 125.373 87.9512 125.373 88.5879V93H124.887V88.6582C124.887 88.1387 124.771 87.7422 124.541 87.4688C124.311 87.1953 123.963 87.0586 123.498 87.0586C123.17 87.0586 122.889 87.1406 122.654 87.3047C122.42 87.4648 122.24 87.6836 122.115 87.9609C121.994 88.2383 121.934 88.5469 121.934 88.8867V93H121.447ZM128.725 93.0645C128.279 93.0645 127.947 92.959 127.729 92.748C127.514 92.5371 127.406 92.2012 127.406 91.7402V87.1113H126.609V86.6895H127.406V84.9961H127.91V86.6895H129.105V87.1113H127.91V91.6934C127.91 92.0254 127.977 92.2656 128.109 92.4141C128.246 92.5625 128.467 92.6367 128.771 92.6367C128.834 92.6367 128.893 92.6367 128.947 92.6367C129.002 92.6328 129.057 92.627 129.111 92.6191V93.0352C129.053 93.0469 128.99 93.0547 128.924 93.0586C128.861 93.0625 128.795 93.0645 128.725 93.0645ZM130.553 93V86.6895H131.039V87.6855H131.062C131.152 87.3184 131.311 87.0488 131.537 86.877C131.764 86.7012 132.035 86.6133 132.352 86.6133C132.477 86.6133 132.586 86.625 132.68 86.6484C132.773 86.6719 132.85 86.6953 132.908 86.7188V87.1992C132.834 87.168 132.746 87.1406 132.645 87.1172C132.547 87.0938 132.439 87.082 132.322 87.082C132.041 87.082 131.805 87.1621 131.613 87.3223C131.426 87.4824 131.283 87.7129 131.186 88.0137C131.088 88.3145 131.039 88.6719 131.039 89.0859V93H130.553ZM135.861 93.0762C135.404 93.0762 135.016 92.9531 134.695 92.707C134.375 92.4609 134.131 92.0996 133.963 91.623C133.795 91.1426 133.711 90.5488 133.711 89.8418V89.8301C133.711 89.1309 133.795 88.543 133.963 88.0664C134.131 87.5859 134.375 87.2246 134.695 86.9824C135.016 86.7363 135.404 86.6133 135.861 86.6133C136.322 86.6133 136.711 86.7363 137.027 86.9824C137.348 87.2246 137.592 87.5859 137.76 88.0664C137.932 88.543 138.018 89.1309 138.018 89.8301V89.8418C138.018 90.5488 137.934 91.1426 137.766 91.623C137.598 92.0996 137.352 92.4609 137.027 92.707C136.707 92.9531 136.318 93.0762 135.861 93.0762ZM135.861 92.6367C136.217 92.6367 136.518 92.5273 136.764 92.3086C137.01 92.0859 137.197 91.7676 137.326 91.3535C137.455 90.9355 137.52 90.4316 137.52 89.8418V89.8301C137.52 89.2402 137.455 88.7383 137.326 88.3242C137.197 87.9102 137.01 87.5957 136.764 87.3809C136.518 87.1621 136.217 87.0527 135.861 87.0527C135.51 87.0527 135.209 87.1621 134.959 87.3809C134.713 87.5957 134.525 87.9102 134.396 88.3242C134.271 88.7383 134.209 89.2402 134.209 89.8301V89.8418C134.209 90.4316 134.271 90.9355 134.396 91.3535C134.525 91.7676 134.713 92.0859 134.959 92.3086C135.205 92.5273 135.506 92.6367 135.861 92.6367ZM139.693 93V84.2285H140.18V93H139.693ZM143.801 93.0762C143.422 93.0762 143.088 93.0078 142.799 92.8711C142.51 92.7344 142.281 92.5332 142.113 92.2676C141.945 92.002 141.854 91.6758 141.838 91.2891V91.0664H142.307L142.312 91.2656C142.336 91.7305 142.484 92.0781 142.758 92.3086C143.031 92.5352 143.381 92.6484 143.807 92.6484C144.08 92.6484 144.32 92.5996 144.527 92.502C144.734 92.4004 144.895 92.2598 145.008 92.0801C145.125 91.8965 145.184 91.6875 145.184 91.4531V91.4414C145.184 91.1211 145.082 90.8555 144.879 90.6445C144.68 90.4336 144.355 90.2422 143.906 90.0703L143.396 89.8828C143.068 89.7539 142.797 89.6113 142.582 89.4551C142.371 89.2949 142.215 89.1152 142.113 88.916C142.016 88.7129 141.967 88.4805 141.967 88.2188V88.207C141.967 87.8945 142.041 87.6191 142.189 87.3809C142.342 87.1387 142.553 86.9512 142.822 86.8184C143.092 86.6816 143.402 86.6133 143.754 86.6133C144.102 86.6133 144.408 86.6836 144.674 86.8242C144.943 86.9609 145.154 87.1602 145.307 87.4219C145.459 87.6836 145.541 88.002 145.553 88.377L145.559 88.6055H145.096L145.09 88.4121C145.07 87.9707 144.938 87.6309 144.691 87.3926C144.449 87.1543 144.137 87.0352 143.754 87.0352C143.492 87.0352 143.266 87.084 143.074 87.1816C142.883 87.2754 142.732 87.4102 142.623 87.5859C142.514 87.7617 142.459 87.9629 142.459 88.1895V88.1953C142.459 88.3984 142.496 88.5762 142.57 88.7285C142.648 88.877 142.773 89.0137 142.945 89.1387C143.117 89.2598 143.35 89.375 143.643 89.4844L144.146 89.6777C144.666 89.877 145.051 90.1113 145.301 90.3809C145.551 90.6504 145.676 90.9941 145.676 91.4121V91.4238C145.676 91.752 145.598 92.0391 145.441 92.2852C145.285 92.5312 145.066 92.7246 144.785 92.8652C144.504 93.0059 144.176 93.0762 143.801 93.0762ZM151.576 93.0762C151.307 93.0762 151.062 93.0254 150.844 92.9238C150.625 92.8223 150.436 92.6699 150.275 92.4668C150.115 92.2637 149.988 92.0117 149.895 91.7109H149.871V93H149.385V84.2285H149.871V87.9727H149.895C149.984 87.6758 150.109 87.4277 150.27 87.2285C150.434 87.0254 150.627 86.873 150.85 86.7715C151.072 86.666 151.314 86.6133 151.576 86.6133C152.002 86.6133 152.367 86.7383 152.672 86.9883C152.977 87.2383 153.209 87.6035 153.369 88.084C153.533 88.5605 153.615 89.1426 153.615 89.8301V89.8418C153.615 90.5293 153.533 91.1152 153.369 91.5996C153.209 92.0801 152.977 92.4473 152.672 92.7012C152.367 92.9512 152.002 93.0762 151.576 93.0762ZM151.494 92.6367C151.838 92.6367 152.131 92.5254 152.373 92.3027C152.615 92.0801 152.799 91.7598 152.924 91.3418C153.053 90.9238 153.117 90.4219 153.117 89.8359V89.8242C153.117 89.2383 153.053 88.7383 152.924 88.3242C152.799 87.9102 152.615 87.5957 152.373 87.3809C152.131 87.1621 151.838 87.0527 151.494 87.0527C151.182 87.0527 150.904 87.1523 150.662 87.3516C150.42 87.5508 150.227 87.8574 150.082 88.2715C149.941 88.6816 149.871 89.2012 149.871 89.8301V89.8418C149.871 90.4746 149.941 90.998 150.082 91.4121C150.227 91.8262 150.42 92.1348 150.662 92.3379C150.904 92.5371 151.182 92.6367 151.494 92.6367ZM157.154 93.0762C156.709 93.0762 156.33 92.9531 156.018 92.707C155.705 92.4609 155.467 92.0977 155.303 91.6172C155.143 91.1367 155.062 90.5469 155.062 89.8477V89.8359C155.062 89.1406 155.143 88.5527 155.303 88.0723C155.463 87.5918 155.695 87.2285 156 86.9824C156.309 86.7363 156.68 86.6133 157.113 86.6133C157.543 86.6133 157.908 86.7344 158.209 86.9766C158.514 87.2188 158.744 87.5723 158.9 88.0371C159.061 88.498 159.141 89.0547 159.141 89.707V89.9766H155.326V89.5723H158.9L158.66 89.918V89.6895C158.66 89.127 158.598 88.6504 158.473 88.2598C158.352 87.8691 158.174 87.5703 157.939 87.3633C157.709 87.1562 157.434 87.0527 157.113 87.0527C156.789 87.0527 156.51 87.1562 156.275 87.3633C156.045 87.5703 155.867 87.8711 155.742 88.2656C155.621 88.6562 155.561 89.1309 155.561 89.6895V89.9238C155.561 90.5098 155.623 91.0059 155.748 91.4121C155.877 91.8145 156.061 92.1191 156.299 92.3262C156.537 92.5332 156.824 92.6367 157.16 92.6367C157.426 92.6367 157.658 92.5781 157.857 92.4609C158.061 92.3438 158.225 92.1777 158.35 91.9629C158.475 91.748 158.557 91.4922 158.596 91.1953L158.607 91.0898H159.082L159.064 91.2012C159.029 91.4746 158.961 91.7266 158.859 91.957C158.762 92.1836 158.631 92.3828 158.467 92.5547C158.307 92.7227 158.115 92.8516 157.893 92.9414C157.674 93.0312 157.428 93.0762 157.154 93.0762ZM160.816 93V84.2285H161.303V87.7031H161.32C161.441 87.3867 161.646 87.127 161.936 86.9238C162.225 86.7168 162.572 86.6133 162.979 86.6133C163.354 86.6133 163.672 86.6895 163.934 86.8418C164.195 86.9941 164.395 87.2168 164.531 87.5098C164.668 87.8027 164.736 88.1621 164.736 88.5879V93H164.25V88.6523C164.25 88.1367 164.135 87.7422 163.904 87.4688C163.674 87.1953 163.328 87.0586 162.867 87.0586C162.535 87.0586 162.252 87.1406 162.018 87.3047C161.787 87.4648 161.609 87.6836 161.484 87.9609C161.363 88.2383 161.303 88.5469 161.303 88.8867V93H160.816ZM167.918 93.0762C167.582 93.0762 167.285 93.0078 167.027 92.8711C166.77 92.7305 166.566 92.5352 166.418 92.2852C166.273 92.0352 166.201 91.7402 166.201 91.4004V91.3945C166.201 91.0742 166.277 90.7793 166.43 90.5098C166.582 90.2402 166.826 90.0156 167.162 89.8359C167.498 89.6523 167.943 89.5332 168.498 89.4785L169.816 89.3555V89.7656L168.568 89.8828C167.9 89.9531 167.42 90.125 167.127 90.3984C166.838 90.6719 166.693 90.998 166.693 91.377V91.3887C166.693 91.7676 166.816 92.0723 167.062 92.3027C167.312 92.5293 167.629 92.6426 168.012 92.6426C168.301 92.6426 168.562 92.5703 168.797 92.4258C169.035 92.2773 169.225 92.0781 169.365 91.8281C169.506 91.5742 169.576 91.293 169.576 90.9844V88.5586C169.576 88.0703 169.461 87.6973 169.23 87.4395C169 87.1816 168.678 87.0527 168.264 87.0527C167.85 87.0527 167.518 87.1758 167.268 87.4219C167.021 87.668 166.889 88.0371 166.869 88.5293L166.863 88.6523H166.389V88.5117C166.4 88.1016 166.484 87.7559 166.641 87.4746C166.797 87.1934 167.012 86.9805 167.285 86.8359C167.562 86.6875 167.889 86.6133 168.264 86.6133C168.646 86.6133 168.971 86.6895 169.236 86.8418C169.506 86.9902 169.711 87.207 169.852 87.4922C169.992 87.7773 170.062 88.123 170.062 88.5293V93H169.576V92.0156H169.553C169.467 92.2305 169.344 92.418 169.184 92.5781C169.023 92.7344 168.834 92.8574 168.615 92.9473C168.4 93.0332 168.168 93.0762 167.918 93.0762ZM173.086 93L171.252 86.6895H171.744L173.408 92.5195H173.432L175.096 86.6895H175.588L173.754 93H173.086ZM176.807 93V86.6895H177.293V93H176.807ZM177.053 85.5234C176.947 85.5234 176.857 85.4883 176.783 85.418C176.709 85.3438 176.672 85.2539 176.672 85.1484C176.672 85.0469 176.709 84.9609 176.783 84.8906C176.857 84.8164 176.947 84.7793 177.053 84.7793C177.158 84.7793 177.248 84.8164 177.322 84.8906C177.4 84.9609 177.439 85.0469 177.439 85.1484C177.439 85.2539 177.4 85.3438 177.322 85.418C177.248 85.4883 177.158 85.5234 177.053 85.5234ZM181.096 93.0762C180.639 93.0762 180.25 92.9531 179.93 92.707C179.609 92.4609 179.365 92.0996 179.197 91.623C179.029 91.1426 178.945 90.5488 178.945 89.8418V89.8301C178.945 89.1309 179.029 88.543 179.197 88.0664C179.365 87.5859 179.609 87.2246 179.93 86.9824C180.25 86.7363 180.639 86.6133 181.096 86.6133C181.557 86.6133 181.945 86.7363 182.262 86.9824C182.582 87.2246 182.826 87.5859 182.994 88.0664C183.166 88.543 183.252 89.1309 183.252 89.8301V89.8418C183.252 90.5488 183.168 91.1426 183 91.623C182.832 92.0996 182.586 92.4609 182.262 92.707C181.941 92.9531 181.553 93.0762 181.096 93.0762ZM181.096 92.6367C181.451 92.6367 181.752 92.5273 181.998 92.3086C182.244 92.0859 182.432 91.7676 182.561 91.3535C182.689 90.9355 182.754 90.4316 182.754 89.8418V89.8301C182.754 89.2402 182.689 88.7383 182.561 88.3242C182.432 87.9102 182.244 87.5957 181.998 87.3809C181.752 87.1621 181.451 87.0527 181.096 87.0527C180.744 87.0527 180.443 87.1621 180.193 87.3809C179.947 87.5957 179.76 87.9102 179.631 88.3242C179.506 88.7383 179.443 89.2402 179.443 89.8301V89.8418C179.443 90.4316 179.506 90.9355 179.631 91.3535C179.76 91.7676 179.947 92.0859 180.193 92.3086C180.439 92.5273 180.74 92.6367 181.096 92.6367ZM184.916 93V86.6895H185.402V87.6855H185.426C185.516 87.3184 185.674 87.0488 185.9 86.877C186.127 86.7012 186.398 86.6133 186.715 86.6133C186.84 86.6133 186.949 86.625 187.043 86.6484C187.137 86.6719 187.213 86.6953 187.271 86.7188V87.1992C187.197 87.168 187.109 87.1406 187.008 87.1172C186.91 87.0938 186.803 87.082 186.686 87.082C186.404 87.082 186.168 87.1621 185.977 87.3223C185.789 87.4824 185.646 87.7129 185.549 88.0137C185.451 88.3145 185.402 88.6719 185.402 89.0859V93H184.916Z" fill="#0066F5"/>
<path d="M237.359 79.2344C236.562 79.2344 235.862 79.1016 235.258 78.8359C234.659 78.5703 234.18 78.2057 233.82 77.7422C233.461 77.2786 233.253 76.7474 233.195 76.1484L233.188 76.0625H234.25L234.258 76.1484C234.299 76.5599 234.461 76.9245 234.742 77.2422C235.023 77.5599 235.393 77.8073 235.852 77.9844C236.315 78.1615 236.836 78.25 237.414 78.25C237.982 78.25 238.484 78.1562 238.922 77.9688C239.359 77.776 239.703 77.5156 239.953 77.1875C240.203 76.8542 240.328 76.4766 240.328 76.0547V76.0469C240.328 75.5208 240.133 75.0807 239.742 74.7266C239.352 74.3672 238.721 74.0885 237.852 73.8906L236.695 73.6328C235.56 73.3776 234.74 73.0052 234.234 72.5156C233.729 72.0208 233.477 71.3854 233.477 70.6094V70.6016C233.477 70.0026 233.641 69.4714 233.969 69.0078C234.297 68.5391 234.75 68.1693 235.328 67.8984C235.911 67.6276 236.578 67.4922 237.328 67.4922C238.062 67.4922 238.711 67.6224 239.273 67.8828C239.841 68.1432 240.292 68.4922 240.625 68.9297C240.964 69.362 241.154 69.849 241.195 70.3906L241.203 70.4844H240.141L240.125 70.3984C240.073 70.0339 239.924 69.7083 239.68 69.4219C239.435 69.1302 239.109 68.8984 238.703 68.7266C238.302 68.5547 237.833 68.4714 237.297 68.4766C236.776 68.4766 236.31 68.5651 235.898 68.7422C235.487 68.9141 235.159 69.1589 234.914 69.4766C234.674 69.7891 234.555 70.1562 234.555 70.5781V70.5859C234.555 71.0807 234.742 71.4922 235.117 71.8203C235.492 72.1484 236.107 72.4089 236.961 72.6016L238.117 72.8672C238.904 73.0443 239.536 73.2708 240.016 73.5469C240.5 73.8229 240.854 74.1562 241.078 74.5469C241.302 74.9375 241.414 75.3932 241.414 75.9141V75.9219C241.414 76.5885 241.245 77.1693 240.906 77.6641C240.568 78.1589 240.094 78.5443 239.484 78.8203C238.875 79.0964 238.167 79.2344 237.359 79.2344ZM247.039 79.1406C246.258 79.1406 245.581 78.9661 245.008 78.6172C244.435 78.263 243.992 77.7604 243.68 77.1094C243.372 76.4583 243.219 75.6875 243.219 74.7969V74.7812C243.219 73.8906 243.372 73.1198 243.68 72.4688C243.992 71.8177 244.435 71.3177 245.008 70.9688C245.581 70.6198 246.258 70.4453 247.039 70.4453C247.826 70.4453 248.503 70.6198 249.07 70.9688C249.643 71.3177 250.083 71.8177 250.391 72.4688C250.703 73.1198 250.859 73.8906 250.859 74.7812V74.7969C250.859 75.6875 250.703 76.4583 250.391 77.1094C250.083 77.7604 249.643 78.263 249.07 78.6172C248.503 78.9661 247.826 79.1406 247.039 79.1406ZM247.039 78.2266C247.617 78.2266 248.112 78.0885 248.523 77.8125C248.94 77.5365 249.258 77.1432 249.477 76.6328C249.701 76.1172 249.812 75.5052 249.812 74.7969V74.7812C249.812 74.0729 249.701 73.4635 249.477 72.9531C249.258 72.4375 248.94 72.0443 248.523 71.7734C248.112 71.4974 247.617 71.3594 247.039 71.3594C246.461 71.3594 245.964 71.4974 245.547 71.7734C245.135 72.0443 244.818 72.4349 244.594 72.9453C244.375 73.4557 244.266 74.0677 244.266 74.7812V74.7969C244.266 75.5052 244.375 76.1172 244.594 76.6328C244.818 77.1432 245.135 77.5365 245.547 77.8125C245.964 78.0885 246.461 78.2266 247.039 78.2266ZM253.641 79V71.4453H252.242V70.5859H253.641V69.5C253.641 68.9792 253.727 68.5469 253.898 68.2031C254.076 67.8542 254.331 67.5938 254.664 67.4219C255.003 67.2448 255.414 67.1562 255.898 67.1562C256.055 67.1562 256.198 67.1641 256.328 67.1797C256.464 67.1901 256.596 67.2057 256.727 67.2266V68.0625C256.643 68.0469 256.547 68.0365 256.438 68.0312C256.328 68.026 256.214 68.0234 256.094 68.0234C255.609 68.0234 255.25 68.151 255.016 68.4062C254.786 68.6615 254.672 69.0365 254.672 69.5312V70.5859H256.648V71.4453H254.672V79H253.641ZM261.508 79.0547C260.711 79.0547 260.133 78.888 259.773 78.5547C259.419 78.2214 259.242 77.6719 259.242 76.9062V71.4453H257.891V70.5859H259.242V68.3984H260.305V70.5859H262.234V71.4453H260.305V76.6719C260.305 77.1927 260.406 77.5677 260.609 77.7969C260.812 78.026 261.151 78.1406 261.625 78.1406C261.745 78.1406 261.849 78.138 261.938 78.1328C262.026 78.1276 262.125 78.1198 262.234 78.1094V78.9922C262.115 79.0078 261.995 79.0208 261.875 79.0312C261.76 79.0469 261.638 79.0547 261.508 79.0547ZM265.977 79L263.594 70.5859H264.625L266.492 77.7344H266.586L268.672 70.5859H269.695L271.773 77.7344H271.867L273.75 70.5859H274.781L272.383 79H271.305L269.219 72.0078H269.125L267.055 79H265.977ZM278.68 79.1406C278.138 79.1406 277.656 79.0417 277.234 78.8438C276.812 78.6406 276.479 78.3542 276.234 77.9844C275.99 77.6146 275.867 77.1797 275.867 76.6797V76.6641C275.867 76.1797 275.984 75.763 276.219 75.4141C276.453 75.0599 276.797 74.7839 277.25 74.5859C277.703 74.3828 278.253 74.2604 278.898 74.2188L282.039 74.0156V74.8516L279.039 75.0547C278.32 75.1016 277.786 75.2604 277.438 75.5312C277.094 75.7969 276.922 76.1693 276.922 76.6484V76.6641C276.922 77.1484 277.104 77.5339 277.469 77.8203C277.833 78.1016 278.302 78.2422 278.875 78.2422C279.38 78.2422 279.831 78.138 280.227 77.9297C280.628 77.7161 280.945 77.4297 281.18 77.0703C281.414 76.7109 281.531 76.3099 281.531 75.8672V73.2578C281.531 72.638 281.349 72.1667 280.984 71.8438C280.62 71.5208 280.096 71.3594 279.414 71.3594C278.841 71.3594 278.365 71.4714 277.984 71.6953C277.604 71.9193 277.357 72.2422 277.242 72.6641L277.234 72.6797H276.203L276.211 72.6484C276.284 72.1953 276.466 71.8047 276.758 71.4766C277.049 71.1484 277.424 70.8958 277.883 70.7188C278.341 70.5365 278.862 70.4453 279.445 70.4453C280.107 70.4453 280.669 70.5573 281.133 70.7812C281.596 71 281.948 71.3177 282.188 71.7344C282.432 72.151 282.555 72.6562 282.555 73.25V79H281.531V77.5469H281.43C281.263 77.8802 281.044 78.1667 280.773 78.4062C280.503 78.6406 280.19 78.8229 279.836 78.9531C279.482 79.0781 279.096 79.1406 278.68 79.1406ZM285.156 79V70.5859H286.188V71.9688H286.281C286.448 71.4896 286.729 71.1172 287.125 70.8516C287.521 70.5807 288.003 70.4453 288.57 70.4453C288.727 70.4453 288.872 70.4531 289.008 70.4688C289.143 70.4844 289.26 70.5026 289.359 70.5234V71.5312C289.214 71.4948 289.068 71.4688 288.922 71.4531C288.781 71.4323 288.628 71.4219 288.461 71.4219C288.023 71.4219 287.633 71.5234 287.289 71.7266C286.951 71.9245 286.682 72.1979 286.484 72.5469C286.286 72.8958 286.188 73.2969 286.188 73.75V79H285.156ZM294.25 79.1406C293.464 79.1406 292.784 78.9635 292.211 78.6094C291.643 78.2552 291.206 77.7552 290.898 77.1094C290.591 76.4635 290.438 75.7005 290.438 74.8203V74.8047C290.438 73.9297 290.591 73.1667 290.898 72.5156C291.206 71.8594 291.638 71.3516 292.195 70.9922C292.758 70.6276 293.414 70.4453 294.164 70.4453C294.919 70.4453 295.568 70.6224 296.109 70.9766C296.656 71.3255 297.076 71.8151 297.367 72.4453C297.664 73.0703 297.812 73.7969 297.812 74.625V75.0625H290.969V74.2188H297.289L296.781 74.9766V74.5859C296.781 73.8828 296.669 73.2943 296.445 72.8203C296.227 72.3411 295.919 71.9792 295.523 71.7344C295.133 71.4896 294.68 71.3672 294.164 71.3672C293.643 71.3672 293.182 71.4922 292.781 71.7422C292.38 71.9922 292.062 72.3594 291.828 72.8438C291.599 73.3229 291.484 73.9036 291.484 74.5859V74.9766C291.484 75.6484 291.599 76.2266 291.828 76.7109C292.057 77.1953 292.38 77.5677 292.797 77.8281C293.214 78.0885 293.706 78.2188 294.273 78.2188C294.68 78.2188 295.042 78.1615 295.359 78.0469C295.682 77.9323 295.951 77.7812 296.164 77.5938C296.378 77.401 296.531 77.1979 296.625 76.9844L296.648 76.9219H297.688L297.664 76.9844C297.581 77.2708 297.443 77.5443 297.25 77.8047C297.062 78.0599 296.823 78.2891 296.531 78.4922C296.24 78.6901 295.901 78.849 295.516 78.9688C295.135 79.0833 294.714 79.1406 294.25 79.1406ZM242.256 93V86.6895H242.742V87.6855H242.766C242.855 87.3184 243.014 87.0488 243.24 86.877C243.467 86.7012 243.738 86.6133 244.055 86.6133C244.18 86.6133 244.289 86.625 244.383 86.6484C244.477 86.6719 244.553 86.6953 244.611 86.7188V87.1992C244.537 87.168 244.449 87.1406 244.348 87.1172C244.25 87.0938 244.143 87.082 244.025 87.082C243.744 87.082 243.508 87.1621 243.316 87.3223C243.129 87.4824 242.986 87.7129 242.889 88.0137C242.791 88.3145 242.742 88.6719 242.742 89.0859V93H242.256ZM247.635 93.0938C247.24 93.0938 246.912 93.0176 246.65 92.8652C246.393 92.7129 246.199 92.4941 246.07 92.209C245.945 91.9238 245.883 91.584 245.883 91.1895V86.6895H246.369V91.125C246.369 91.6055 246.482 91.9805 246.709 92.25C246.936 92.5195 247.289 92.6543 247.77 92.6543C248.012 92.6543 248.229 92.6113 248.42 92.5254C248.615 92.4395 248.779 92.3184 248.912 92.1621C249.045 92.002 249.145 91.8145 249.211 91.5996C249.281 91.3809 249.316 91.1426 249.316 90.8848V86.6895H249.809V93H249.316V92.0449H249.299C249.213 92.2637 249.092 92.4512 248.936 92.6074C248.783 92.7637 248.596 92.8848 248.373 92.9707C248.154 93.0527 247.908 93.0938 247.635 93.0938ZM251.701 93V86.6895H252.188V87.709H252.211C252.332 87.3887 252.535 87.127 252.82 86.9238C253.109 86.7168 253.459 86.6133 253.869 86.6133C254.428 86.6133 254.859 86.7832 255.164 87.123C255.473 87.4629 255.627 87.9512 255.627 88.5879V93H255.141V88.6582C255.141 88.1387 255.025 87.7422 254.795 87.4688C254.564 87.1953 254.217 87.0586 253.752 87.0586C253.424 87.0586 253.143 87.1406 252.908 87.3047C252.674 87.4648 252.494 87.6836 252.369 87.9609C252.248 88.2383 252.188 88.5469 252.188 88.8867V93H251.701ZM259.195 93.0762C258.816 93.0762 258.482 93.0078 258.193 92.8711C257.904 92.7344 257.676 92.5332 257.508 92.2676C257.34 92.002 257.248 91.6758 257.232 91.2891V91.0664H257.701L257.707 91.2656C257.73 91.7305 257.879 92.0781 258.152 92.3086C258.426 92.5352 258.775 92.6484 259.201 92.6484C259.475 92.6484 259.715 92.5996 259.922 92.502C260.129 92.4004 260.289 92.2598 260.402 92.0801C260.52 91.8965 260.578 91.6875 260.578 91.4531V91.4414C260.578 91.1211 260.477 90.8555 260.273 90.6445C260.074 90.4336 259.75 90.2422 259.301 90.0703L258.791 89.8828C258.463 89.7539 258.191 89.6113 257.977 89.4551C257.766 89.2949 257.609 89.1152 257.508 88.916C257.41 88.7129 257.361 88.4805 257.361 88.2188V88.207C257.361 87.8945 257.436 87.6191 257.584 87.3809C257.736 87.1387 257.947 86.9512 258.217 86.8184C258.486 86.6816 258.797 86.6133 259.148 86.6133C259.496 86.6133 259.803 86.6836 260.068 86.8242C260.338 86.9609 260.549 87.1602 260.701 87.4219C260.854 87.6836 260.936 88.002 260.947 88.377L260.953 88.6055H260.49L260.484 88.4121C260.465 87.9707 260.332 87.6309 260.086 87.3926C259.844 87.1543 259.531 87.0352 259.148 87.0352C258.887 87.0352 258.66 87.084 258.469 87.1816C258.277 87.2754 258.127 87.4102 258.018 87.5859C257.908 87.7617 257.854 87.9629 257.854 88.1895V88.1953C257.854 88.3984 257.891 88.5762 257.965 88.7285C258.043 88.877 258.168 89.0137 258.34 89.1387C258.512 89.2598 258.744 89.375 259.037 89.4844L259.541 89.6777C260.061 89.877 260.445 90.1113 260.695 90.3809C260.945 90.6504 261.07 90.9941 261.07 91.4121V91.4238C261.07 91.752 260.992 92.0391 260.836 92.2852C260.68 92.5312 260.461 92.7246 260.18 92.8652C259.898 93.0059 259.57 93.0762 259.195 93.0762ZM264.744 93V86.6895H265.23V93H264.744ZM264.99 85.5234C264.885 85.5234 264.795 85.4883 264.721 85.418C264.646 85.3438 264.609 85.2539 264.609 85.1484C264.609 85.0469 264.646 84.9609 264.721 84.8906C264.795 84.8164 264.885 84.7793 264.99 84.7793C265.096 84.7793 265.186 84.8164 265.26 84.8906C265.338 84.9609 265.377 85.0469 265.377 85.1484C265.377 85.2539 265.338 85.3438 265.26 85.418C265.186 85.4883 265.096 85.5234 264.99 85.5234ZM267.1 93V86.6895H267.586V87.709H267.609C267.73 87.3887 267.934 87.127 268.219 86.9238C268.508 86.7168 268.857 86.6133 269.268 86.6133C269.826 86.6133 270.258 86.7832 270.562 87.123C270.871 87.4629 271.025 87.9512 271.025 88.5879V93H270.539V88.6582C270.539 88.1387 270.424 87.7422 270.193 87.4688C269.963 87.1953 269.615 87.0586 269.15 87.0586C268.822 87.0586 268.541 87.1406 268.307 87.3047C268.072 87.4648 267.893 87.6836 267.768 87.9609C267.646 88.2383 267.586 88.5469 267.586 88.8867V93H267.1ZM274.377 93.0645C273.932 93.0645 273.6 92.959 273.381 92.748C273.166 92.5371 273.059 92.2012 273.059 91.7402V87.1113H272.262V86.6895H273.059V84.9961H273.562V86.6895H274.758V87.1113H273.562V91.6934C273.562 92.0254 273.629 92.2656 273.762 92.4141C273.898 92.5625 274.119 92.6367 274.424 92.6367C274.486 92.6367 274.545 92.6367 274.6 92.6367C274.654 92.6328 274.709 92.627 274.764 92.6191V93.0352C274.705 93.0469 274.643 93.0547 274.576 93.0586C274.514 93.0625 274.447 93.0645 274.377 93.0645ZM277.893 93.0762C277.447 93.0762 277.068 92.9531 276.756 92.707C276.443 92.4609 276.205 92.0977 276.041 91.6172C275.881 91.1367 275.801 90.5469 275.801 89.8477V89.8359C275.801 89.1406 275.881 88.5527 276.041 88.0723C276.201 87.5918 276.434 87.2285 276.738 86.9824C277.047 86.7363 277.418 86.6133 277.852 86.6133C278.281 86.6133 278.646 86.7344 278.947 86.9766C279.252 87.2188 279.482 87.5723 279.639 88.0371C279.799 88.498 279.879 89.0547 279.879 89.707V89.9766H276.064V89.5723H279.639L279.398 89.918V89.6895C279.398 89.127 279.336 88.6504 279.211 88.2598C279.09 87.8691 278.912 87.5703 278.678 87.3633C278.447 87.1562 278.172 87.0527 277.852 87.0527C277.527 87.0527 277.248 87.1562 277.014 87.3633C276.783 87.5703 276.605 87.8711 276.48 88.2656C276.359 88.6562 276.299 89.1309 276.299 89.6895V89.9238C276.299 90.5098 276.361 91.0059 276.486 91.4121C276.615 91.8145 276.799 92.1191 277.037 92.3262C277.275 92.5332 277.562 92.6367 277.898 92.6367C278.164 92.6367 278.396 92.5781 278.596 92.4609C278.799 92.3438 278.963 92.1777 279.088 91.9629C279.213 91.748 279.295 91.4922 279.334 91.1953L279.346 91.0898H279.82L279.803 91.2012C279.768 91.4746 279.699 91.7266 279.598 91.957C279.5 92.1836 279.369 92.3828 279.205 92.5547C279.045 92.7227 278.854 92.8516 278.631 92.9414C278.412 93.0312 278.166 93.0762 277.893 93.0762ZM281.525 93V86.6895H282.012V87.709H282.035C282.156 87.3887 282.359 87.127 282.645 86.9238C282.934 86.7168 283.283 86.6133 283.693 86.6133C284.252 86.6133 284.684 86.7832 284.988 87.123C285.297 87.4629 285.451 87.9512 285.451 88.5879V93H284.965V88.6582C284.965 88.1387 284.85 87.7422 284.619 87.4688C284.389 87.1953 284.041 87.0586 283.576 87.0586C283.248 87.0586 282.967 87.1406 282.732 87.3047C282.498 87.4648 282.318 87.6836 282.193 87.9609C282.072 88.2383 282.012 88.5469 282.012 88.8867V93H281.525ZM288.803 93.0645C288.357 93.0645 288.025 92.959 287.807 92.748C287.592 92.5371 287.484 92.2012 287.484 91.7402V87.1113H286.688V86.6895H287.484V84.9961H287.988V86.6895H289.184V87.1113H287.988V91.6934C287.988 92.0254 288.055 92.2656 288.188 92.4141C288.324 92.5625 288.545 92.6367 288.85 92.6367C288.912 92.6367 288.971 92.6367 289.025 92.6367C289.08 92.6328 289.135 92.627 289.189 92.6191V93.0352C289.131 93.0469 289.068 93.0547 289.002 93.0586C288.939 93.0625 288.873 93.0645 288.803 93.0645Z" fill="#0066F5"/>
</svg>
