<svg width="840" height="236" viewBox="0 0 840 236" fill="none" xmlns="http://www.w3.org/2000/svg">
<g clip-path="url(#clip0_3818_7555)">
<path d="M303.283 59L302.078 60.2041V170.98L303.283 172.184H328.825L330.03 170.98V94.4C336.536 86.9347 347.62 82.3592 358.705 82.3592C376.777 82.3592 386.416 92.2327 386.416 111.498V170.98L387.62 172.184H413.163L414.368 170.98V108.367C414.368 75.8572 396.295 55.3878 360.15 55.3878C349.307 55.3878 338.464 59 330.03 63.8163V60.2041L328.825 59H303.283Z" fill="white"/>
<path d="M435.237 59L434.033 59.9633V85.9714L435.237 87.1755H453.31V170.98L454.515 172.184H480.298L481.503 170.98V87.1755H523.671L524.876 85.9714V60.2041L523.671 59H481.503V54.9061C481.503 36.6041 488.972 26.9714 503.671 26.9714C510.418 26.9714 516.443 28.4163 523.671 34.1959L524.876 32.9918V4.81632C517.647 1.44489 511.623 0 502.467 0C471.141 0 453.31 21.4327 453.31 53.702V59H435.237Z" fill="white"/>
<path d="M548.248 59L547.043 60.2041V170.98L548.248 172.184H573.79L574.995 170.98V60.2041L573.79 59H548.248ZM559.814 10.8367L542.224 28.1755V30.5837L559.814 48.1633H562.224L579.814 30.5837V28.1755L562.224 10.8367H559.814Z" fill="white"/>
<path fill-rule="evenodd" clip-rule="evenodd" d="M670.602 59C665.06 56.8327 658.794 55.3878 652.529 55.3878C627.228 55.3878 606.746 75.3755 606.746 99.9388C606.746 112.702 611.083 122.335 619.758 130.763C613.011 136.061 609.397 142.804 609.397 149.788C609.397 158.216 613.734 163.514 618.553 167.127C604.095 175.796 594.216 187.114 594.216 200.359C594.216 226.849 621.204 236 654.939 236C688.674 236 710.843 221.31 710.843 198.673C710.843 151.955 636.867 159.902 636.867 146.657C636.867 144.249 638.071 143.045 639.276 141.841C642.891 143.527 647.71 144.49 652.529 144.49C679.276 144.49 698.313 124.984 698.313 99.9388C698.313 94.6408 697.108 89.8245 695.421 85.0082H727.71V122.816C727.71 155.327 745.783 175.796 781.928 175.796C792.771 175.796 803.614 172.184 812.048 167.367V170.98L813.253 172.184H838.795L840 170.98V60.2041L838.795 59H813.253L812.048 60.2041V136.784C805.542 144.249 794.458 148.825 783.373 148.825C765.301 148.825 755.662 138.951 755.662 119.686V60.2041L754.457 59H670.602ZM681.927 197.71C681.927 186.543 663.023 181.773 649.08 178.255C645.284 177.297 641.855 176.431 639.276 175.555C631.565 180.371 623.132 188.559 623.132 198.433C623.132 206.38 632.288 211.196 654.939 211.196C673.493 211.196 681.927 205.176 681.927 197.71ZM671.807 99.9388C671.807 89.102 663.373 80.1918 652.529 80.1918C641.686 80.1918 633.252 89.102 633.252 99.9388C633.252 110.776 641.686 119.686 652.529 119.686C663.373 119.686 671.807 110.776 671.807 99.9388Z" fill="white"/>
<path d="M146.989 48.8857V17.098C131.326 5.77959 112.049 0 89.157 0C39.7592 0 0 39.7347 0 87.898C0 136.061 39.7592 175.796 89.157 175.796C112.049 175.796 131.396 170.113 146.989 158.698C155.222 152.67 161.924 146.241 167.676 139.597C180.491 124.794 188.583 108.929 198.362 94.0844C203.962 86.7826 212.649 82.3592 223.09 82.3592C241.404 82.3592 254.416 96.3265 254.416 115.592C254.416 134.857 241.404 148.825 223.09 148.825C212.577 148.825 202.805 142.663 197.397 137.117L196.001 136.925C194.774 138.88 191.471 144.074 188.917 147.5C186.414 150.856 182.434 155.46 180.819 157.306L181.306 159.3C192.067 169.565 206.728 175.796 223.09 175.796C256.825 175.796 283.331 149.306 283.331 115.592C283.331 81.8776 256.825 55.3878 223.09 55.3878C201.625 55.3878 183.086 66.1129 172.44 82.6C172.086 83.1725 171.735 83.7457 171.391 84.3221C170.655 85.5928 169.969 86.8906 169.253 88.1779C165.038 95.7547 154.756 113.47 145.23 123.9C132.868 137.434 110.603 146.416 89.157 146.416C57.3497 146.416 31.8074 120.408 31.8074 87.898C31.8074 55.3878 57.3497 29.3796 89.157 29.3796C110.603 29.3796 130.121 36.8449 145.784 50.0898L146.989 48.8857Z" fill="white"/>
</g>
<defs>
<clipPath id="clip0_3818_7555">
<rect width="840" height="236" fill="white"/>
</clipPath>
</defs>
</svg>
